G04 EAGLE Gerber RS-274X export*
G75*
%MOMM*%
%FSLAX34Y34*%
%LPD*%
%INSilkscreen Bottom*%
%IPPOS*%
%AMOC8*
5,1,8,0,0,1.08239X$1,22.5*%
G01*
%ADD10C,0.152400*%
%ADD11R,9.144000X0.030481*%
%ADD12R,9.144000X0.030475*%
%ADD13R,0.396238X0.030481*%
%ADD14R,1.676400X0.030481*%
%ADD15R,0.335281X0.030481*%
%ADD16R,0.365756X0.030481*%
%ADD17R,0.396238X0.030475*%
%ADD18R,1.676400X0.030475*%
%ADD19R,0.335281X0.030475*%
%ADD20R,0.365756X0.030475*%
%ADD21R,1.066800X0.030475*%
%ADD22R,0.335275X0.030475*%
%ADD23R,0.670563X0.030475*%
%ADD24R,1.066800X0.030481*%
%ADD25R,0.335275X0.030481*%
%ADD26R,0.670563X0.030481*%
%ADD27R,0.731519X0.030481*%
%ADD28R,1.005837X0.030481*%
%ADD29R,0.731519X0.030475*%
%ADD30R,1.005837X0.030475*%
%ADD31R,0.670556X0.030481*%
%ADD32R,0.670556X0.030475*%
%ADD33R,3.048000X0.030481*%
%ADD34R,3.048000X0.030475*%
%ADD35R,1.371600X0.030475*%
%ADD36R,1.371600X0.030481*%
%ADD37R,0.701037X0.030481*%
%ADD38R,0.701037X0.030475*%
%ADD39R,2.346956X0.030475*%
%ADD40R,2.346956X0.030481*%
%ADD41R,2.072637X0.030481*%
%ADD42R,1.341119X0.030481*%
%ADD43R,2.072637X0.030475*%
%ADD44R,1.341119X0.030475*%
%ADD45R,2.042156X0.030481*%
%ADD46R,2.042156X0.030475*%
%ADD47R,3.078481X0.030481*%
%ADD48R,3.718556X0.030481*%
%ADD49R,3.078481X0.030475*%
%ADD50R,3.718556X0.030475*%


D10*
X502747Y397256D02*
X506984Y401493D01*
X506984Y405730D01*
X502747Y409967D01*
X491897Y409967D02*
X489779Y407848D01*
X491897Y409967D02*
X496134Y409967D01*
X498253Y407848D01*
X498253Y399374D01*
X496134Y397256D01*
X491897Y397256D01*
X489779Y399374D01*
X485155Y397256D02*
X480918Y401493D01*
X480918Y405730D01*
X485155Y409967D01*
X476424Y397256D02*
X467950Y397256D01*
X476424Y397256D02*
X467950Y405730D01*
X467950Y407848D01*
X470068Y409967D01*
X474305Y409967D01*
X476424Y407848D01*
X463327Y407848D02*
X463327Y399374D01*
X463327Y407848D02*
X461208Y409967D01*
X456971Y409967D01*
X454853Y407848D01*
X454853Y399374D01*
X456971Y397256D01*
X461208Y397256D01*
X463327Y399374D01*
X454853Y407848D01*
X450229Y397256D02*
X441755Y397256D01*
X450229Y397256D02*
X441755Y405730D01*
X441755Y407848D01*
X443874Y409967D01*
X448111Y409967D01*
X450229Y407848D01*
X437132Y407848D02*
X437132Y399374D01*
X437132Y407848D02*
X435014Y409967D01*
X430777Y409967D01*
X428658Y407848D01*
X428658Y399374D01*
X430777Y397256D01*
X435014Y397256D01*
X437132Y399374D01*
X428658Y407848D01*
X404582Y409967D02*
X402464Y407848D01*
X404582Y409967D02*
X408819Y409967D01*
X410938Y407848D01*
X410938Y399374D01*
X408819Y397256D01*
X404582Y397256D01*
X402464Y399374D01*
X402464Y403611D01*
X406701Y403611D01*
X397840Y397256D02*
X393603Y397256D01*
X395722Y397256D02*
X395722Y409967D01*
X397840Y409967D02*
X393603Y409967D01*
X386990Y409967D02*
X382753Y409967D01*
X386990Y409967D02*
X389109Y407848D01*
X389109Y399374D01*
X386990Y397256D01*
X382753Y397256D01*
X380635Y399374D01*
X380635Y407848D01*
X382753Y409967D01*
X376012Y409967D02*
X376012Y401493D01*
X371775Y397256D01*
X367538Y401493D01*
X367538Y409967D01*
X362914Y405730D02*
X362914Y397256D01*
X362914Y405730D02*
X358677Y409967D01*
X354440Y405730D01*
X354440Y397256D01*
X354440Y403611D02*
X362914Y403611D01*
X349817Y397256D02*
X349817Y409967D01*
X341343Y397256D01*
X341343Y409967D01*
X336720Y409967D02*
X336720Y397256D01*
X328246Y397256D02*
X336720Y409967D01*
X328246Y409967D02*
X328246Y397256D01*
X323623Y397256D02*
X319386Y397256D01*
X321504Y397256D02*
X321504Y409967D01*
X319386Y409967D02*
X323623Y409967D01*
X301794Y409967D02*
X301794Y397256D01*
X301794Y409967D02*
X295438Y409967D01*
X293320Y407848D01*
X293320Y405730D01*
X295438Y403611D01*
X293320Y401493D01*
X293320Y399374D01*
X295438Y397256D01*
X301794Y397256D01*
X301794Y403611D02*
X295438Y403611D01*
X288697Y409967D02*
X280223Y409967D01*
X288697Y409967D02*
X288697Y397256D01*
X280223Y397256D01*
X284460Y403611D02*
X288697Y403611D01*
X275599Y397256D02*
X275599Y409967D01*
X269244Y409967D01*
X267125Y407848D01*
X267125Y403611D01*
X269244Y401493D01*
X275599Y401493D01*
X271362Y401493D02*
X267125Y397256D01*
X262502Y397256D02*
X262502Y409967D01*
X254028Y397256D01*
X254028Y409967D01*
X249405Y405730D02*
X249405Y397256D01*
X249405Y405730D02*
X245168Y409967D01*
X240931Y405730D01*
X240931Y397256D01*
X240931Y403611D02*
X249405Y403611D01*
X236308Y397256D02*
X236308Y409967D01*
X229952Y409967D01*
X227834Y407848D01*
X227834Y403611D01*
X229952Y401493D01*
X236308Y401493D01*
X232071Y401493D02*
X227834Y397256D01*
X223210Y397256D02*
X223210Y409967D01*
X223210Y397256D02*
X216855Y397256D01*
X214736Y399374D01*
X214736Y407848D01*
X216855Y409967D01*
X223210Y409967D01*
X207995Y409967D02*
X203758Y409967D01*
X207995Y409967D02*
X210113Y407848D01*
X210113Y399374D01*
X207995Y397256D01*
X203758Y397256D01*
X201639Y399374D01*
X201639Y407848D01*
X203758Y409967D01*
X579374Y184415D02*
X579374Y171704D01*
X575137Y175941D01*
X570900Y171704D01*
X570900Y184415D01*
X566277Y184415D02*
X566277Y171704D01*
X562040Y175941D01*
X557803Y171704D01*
X557803Y184415D01*
X553180Y184415D02*
X553180Y171704D01*
X548943Y175941D01*
X544706Y171704D01*
X544706Y184415D01*
X540082Y173822D02*
X540082Y171704D01*
X540082Y173822D02*
X537964Y173822D01*
X537964Y171704D01*
X540082Y171704D01*
X527178Y184415D02*
X525060Y182296D01*
X527178Y184415D02*
X531415Y184415D01*
X533534Y182296D01*
X533534Y180178D01*
X531415Y178059D01*
X527178Y178059D01*
X525060Y175941D01*
X525060Y173822D01*
X527178Y171704D01*
X531415Y171704D01*
X533534Y173822D01*
X520436Y184415D02*
X511962Y184415D01*
X520436Y184415D02*
X520436Y171704D01*
X511962Y171704D01*
X516199Y178059D02*
X520436Y178059D01*
X503102Y171704D02*
X503102Y184415D01*
X507339Y184415D02*
X498865Y184415D01*
X490005Y184415D02*
X490005Y171704D01*
X494242Y184415D02*
X485768Y184415D01*
X479026Y184415D02*
X474789Y184415D01*
X479026Y184415D02*
X481145Y182296D01*
X481145Y173822D01*
X479026Y171704D01*
X474789Y171704D01*
X472671Y173822D01*
X472671Y182296D01*
X474789Y184415D01*
X468047Y184415D02*
X468047Y171704D01*
X468047Y184415D02*
X461692Y184415D01*
X459573Y182296D01*
X459573Y178059D01*
X461692Y175941D01*
X468047Y175941D01*
X463810Y175941D02*
X459573Y171704D01*
X454950Y184415D02*
X446476Y184415D01*
X454950Y184415D02*
X454950Y171704D01*
X446476Y171704D01*
X450713Y178059D02*
X454950Y178059D01*
X441853Y184415D02*
X433379Y184415D01*
X433379Y182296D01*
X441853Y173822D01*
X441853Y171704D01*
X433379Y171704D01*
X428756Y184415D02*
X420282Y184415D01*
X428756Y184415D02*
X428756Y171704D01*
X420282Y171704D01*
X424519Y178059D02*
X428756Y178059D01*
X415658Y171704D02*
X415658Y184415D01*
X409303Y184415D01*
X407184Y182296D01*
X407184Y178059D01*
X409303Y175941D01*
X415658Y175941D01*
X411421Y175941D02*
X407184Y171704D01*
X400443Y184415D02*
X396206Y184415D01*
X400443Y184415D02*
X402561Y182296D01*
X402561Y173822D01*
X400443Y171704D01*
X396206Y171704D01*
X394087Y173822D01*
X394087Y182296D01*
X396206Y184415D01*
X389464Y173822D02*
X389464Y171704D01*
X389464Y173822D02*
X387345Y173822D01*
X387345Y171704D01*
X389464Y171704D01*
X376560Y184415D02*
X374441Y182296D01*
X376560Y184415D02*
X380797Y184415D01*
X382915Y182296D01*
X382915Y173822D01*
X380797Y171704D01*
X376560Y171704D01*
X374441Y173822D01*
X367700Y184415D02*
X363463Y184415D01*
X367700Y184415D02*
X369818Y182296D01*
X369818Y173822D01*
X367700Y171704D01*
X363463Y171704D01*
X361344Y173822D01*
X361344Y182296D01*
X363463Y184415D01*
X356721Y184415D02*
X356721Y171704D01*
X352484Y180178D02*
X356721Y184415D01*
X352484Y180178D02*
X348247Y184415D01*
X348247Y171704D01*
X29891Y409189D02*
X29891Y411307D01*
X29891Y409189D02*
X27772Y407070D01*
X17180Y407070D01*
X17180Y413426D01*
X19299Y415544D01*
X23536Y415544D01*
X25654Y413426D01*
X25654Y407070D01*
X17180Y402447D02*
X17180Y400328D01*
X25654Y400328D01*
X25654Y398210D02*
X25654Y402447D01*
X12943Y400328D02*
X10825Y400328D01*
X15062Y391597D02*
X23536Y391597D01*
X25654Y389478D01*
X17180Y389478D02*
X17180Y393715D01*
X12943Y384984D02*
X25654Y384984D01*
X19299Y384984D02*
X17180Y382865D01*
X17180Y378628D01*
X19299Y376510D01*
X25654Y376510D01*
X23536Y371887D02*
X17180Y371887D01*
X23536Y371887D02*
X25654Y369768D01*
X25654Y363413D01*
X17180Y363413D01*
X12943Y358789D02*
X25654Y358789D01*
X25654Y352434D01*
X23536Y350315D01*
X19299Y350315D01*
X17180Y352434D01*
X17180Y358789D01*
X23536Y345692D02*
X25654Y345692D01*
X23536Y345692D02*
X23536Y343574D01*
X25654Y343574D01*
X25654Y345692D01*
X17180Y337025D02*
X17180Y330669D01*
X17180Y337025D02*
X19299Y339143D01*
X23536Y339143D01*
X25654Y337025D01*
X25654Y330669D01*
X25654Y323928D02*
X25654Y319691D01*
X23536Y317572D01*
X19299Y317572D01*
X17180Y319691D01*
X17180Y323928D01*
X19299Y326046D01*
X23536Y326046D01*
X25654Y323928D01*
X25654Y312949D02*
X17180Y312949D01*
X17180Y310830D01*
X19299Y308712D01*
X25654Y308712D01*
X19299Y308712D02*
X17180Y306593D01*
X19299Y304475D01*
X25654Y304475D01*
X25654Y299852D02*
X12943Y291378D01*
X25654Y286754D02*
X25654Y280399D01*
X23536Y278280D01*
X21417Y280399D01*
X21417Y284636D01*
X19299Y286754D01*
X17180Y284636D01*
X17180Y278280D01*
X25654Y271539D02*
X25654Y267302D01*
X25654Y271539D02*
X23536Y273657D01*
X19299Y273657D01*
X17180Y271539D01*
X17180Y267302D01*
X19299Y265183D01*
X21417Y265183D01*
X21417Y273657D01*
X23536Y258441D02*
X15062Y258441D01*
X23536Y258441D02*
X25654Y256323D01*
X17180Y256323D02*
X17180Y260560D01*
X15062Y249710D02*
X23536Y249710D01*
X25654Y247591D01*
X17180Y247591D02*
X17180Y251828D01*
X25654Y240978D02*
X25654Y236741D01*
X23536Y234623D01*
X19299Y234623D01*
X17180Y236741D01*
X17180Y240978D01*
X19299Y243097D01*
X23536Y243097D01*
X25654Y240978D01*
X25654Y230000D02*
X17180Y230000D01*
X21417Y230000D02*
X17180Y225763D01*
X17180Y223644D01*
X25654Y216967D02*
X25654Y212730D01*
X25654Y216967D02*
X23536Y219085D01*
X19299Y219085D01*
X17180Y216967D01*
X17180Y212730D01*
X19299Y210611D01*
X21417Y210611D01*
X21417Y219085D01*
X17180Y205988D02*
X17180Y197514D01*
X25654Y205988D01*
X25654Y197514D01*
X25654Y190772D02*
X25654Y186535D01*
X25654Y190772D02*
X23536Y192891D01*
X19299Y192891D01*
X17180Y190772D01*
X17180Y186535D01*
X19299Y184417D01*
X21417Y184417D01*
X21417Y192891D01*
X25654Y179794D02*
X17180Y179794D01*
X21417Y179794D02*
X17180Y175557D01*
X17180Y173438D01*
X25654Y166761D02*
X25654Y162524D01*
X23536Y160405D01*
X19299Y160405D01*
X17180Y162524D01*
X17180Y166761D01*
X19299Y168879D01*
X23536Y168879D01*
X25654Y166761D01*
X25654Y155782D02*
X12943Y147308D01*
X17180Y140566D02*
X17180Y136329D01*
X19299Y134211D01*
X25654Y134211D01*
X25654Y140566D01*
X23536Y142685D01*
X21417Y140566D01*
X21417Y134211D01*
X25654Y129587D02*
X17180Y129587D01*
X21417Y129587D02*
X17180Y125350D01*
X17180Y123232D01*
X12943Y118673D02*
X12943Y116555D01*
X25654Y116555D01*
X25654Y118673D02*
X25654Y114436D01*
X25654Y107823D02*
X25654Y103586D01*
X23536Y101468D01*
X19299Y101468D01*
X17180Y103586D01*
X17180Y107823D01*
X19299Y109942D01*
X23536Y109942D01*
X25654Y107823D01*
X25654Y96844D02*
X12943Y96844D01*
X21417Y96844D02*
X25654Y90489D01*
X21417Y96844D02*
X17180Y90489D01*
D11*
X130607Y425501D03*
D12*
X130607Y425806D03*
D11*
X130607Y426110D03*
X130607Y426415D03*
D12*
X130607Y426720D03*
D11*
X130607Y427025D03*
D12*
X130607Y427330D03*
D11*
X130607Y427634D03*
X130607Y427939D03*
D12*
X130607Y428244D03*
D11*
X130607Y428549D03*
D12*
X130607Y428854D03*
D11*
X130607Y429158D03*
D13*
X86868Y429463D03*
D14*
X117348Y429463D03*
D15*
X147523Y429463D03*
D16*
X174498Y429463D03*
D17*
X86868Y429768D03*
D18*
X117348Y429768D03*
D19*
X147523Y429768D03*
D20*
X174498Y429768D03*
D13*
X86868Y430073D03*
D14*
X117348Y430073D03*
D15*
X147523Y430073D03*
D16*
X174498Y430073D03*
D17*
X86868Y430378D03*
D18*
X117348Y430378D03*
D19*
X147523Y430378D03*
D20*
X174498Y430378D03*
D13*
X86868Y430682D03*
D14*
X117348Y430682D03*
D15*
X147523Y430682D03*
D16*
X174498Y430682D03*
D13*
X86868Y430987D03*
D14*
X117348Y430987D03*
D15*
X147523Y430987D03*
D16*
X174498Y430987D03*
D17*
X86868Y431292D03*
D18*
X117348Y431292D03*
D19*
X147523Y431292D03*
D20*
X174498Y431292D03*
D13*
X86868Y431597D03*
D14*
X117348Y431597D03*
D15*
X147523Y431597D03*
D16*
X174498Y431597D03*
D17*
X86868Y431902D03*
D18*
X117348Y431902D03*
D19*
X147523Y431902D03*
D20*
X174498Y431902D03*
D13*
X86868Y432206D03*
D14*
X117348Y432206D03*
D15*
X147523Y432206D03*
D16*
X174498Y432206D03*
D13*
X86868Y432511D03*
D14*
X117348Y432511D03*
D15*
X147523Y432511D03*
D16*
X174498Y432511D03*
D21*
X90221Y432816D03*
D22*
X100584Y432816D03*
D19*
X107290Y432816D03*
D22*
X117348Y432816D03*
D23*
X139141Y432816D03*
D19*
X147523Y432816D03*
D18*
X160934Y432816D03*
D20*
X174498Y432816D03*
D24*
X90221Y433121D03*
D25*
X100584Y433121D03*
D15*
X107290Y433121D03*
D25*
X117348Y433121D03*
D26*
X139141Y433121D03*
D15*
X147523Y433121D03*
D14*
X160934Y433121D03*
D16*
X174498Y433121D03*
D21*
X90221Y433426D03*
D22*
X100584Y433426D03*
D19*
X107290Y433426D03*
D22*
X117348Y433426D03*
D23*
X139141Y433426D03*
D19*
X147523Y433426D03*
D18*
X160934Y433426D03*
D20*
X174498Y433426D03*
D24*
X90221Y433730D03*
D25*
X100584Y433730D03*
D15*
X107290Y433730D03*
D25*
X117348Y433730D03*
D26*
X139141Y433730D03*
D15*
X147523Y433730D03*
D14*
X160934Y433730D03*
D16*
X174498Y433730D03*
D24*
X90221Y434035D03*
D25*
X100584Y434035D03*
D15*
X107290Y434035D03*
D25*
X117348Y434035D03*
D26*
X139141Y434035D03*
D15*
X147523Y434035D03*
D14*
X160934Y434035D03*
D16*
X174498Y434035D03*
D21*
X90221Y434340D03*
D22*
X100584Y434340D03*
D19*
X107290Y434340D03*
D22*
X117348Y434340D03*
D23*
X139141Y434340D03*
D19*
X147523Y434340D03*
D18*
X160934Y434340D03*
D20*
X174498Y434340D03*
D24*
X90221Y434645D03*
D25*
X100584Y434645D03*
D15*
X107290Y434645D03*
D25*
X117348Y434645D03*
D26*
X139141Y434645D03*
D15*
X147523Y434645D03*
D14*
X160934Y434645D03*
D16*
X174498Y434645D03*
D21*
X90221Y434950D03*
D22*
X100584Y434950D03*
D19*
X107290Y434950D03*
D22*
X117348Y434950D03*
D23*
X139141Y434950D03*
D19*
X147523Y434950D03*
D18*
X160934Y434950D03*
D20*
X174498Y434950D03*
D24*
X90221Y435254D03*
D25*
X100584Y435254D03*
D15*
X107290Y435254D03*
D25*
X117348Y435254D03*
D26*
X139141Y435254D03*
D15*
X147523Y435254D03*
D14*
X160934Y435254D03*
D16*
X174498Y435254D03*
D24*
X90221Y435559D03*
D25*
X100584Y435559D03*
D15*
X107290Y435559D03*
D25*
X117348Y435559D03*
D26*
X139141Y435559D03*
D15*
X147523Y435559D03*
D14*
X160934Y435559D03*
D16*
X174498Y435559D03*
D21*
X90221Y435864D03*
D22*
X100584Y435864D03*
D19*
X107290Y435864D03*
D22*
X117348Y435864D03*
D23*
X139141Y435864D03*
D19*
X147523Y435864D03*
D18*
X160934Y435864D03*
D20*
X174498Y435864D03*
D27*
X88544Y436169D03*
D25*
X100584Y436169D03*
D15*
X107290Y436169D03*
D28*
X120701Y436169D03*
D15*
X130759Y436169D03*
D26*
X139141Y436169D03*
D15*
X147523Y436169D03*
X154229Y436169D03*
D25*
X167640Y436169D03*
D16*
X174498Y436169D03*
D29*
X88544Y436474D03*
D22*
X100584Y436474D03*
D19*
X107290Y436474D03*
D30*
X120701Y436474D03*
D19*
X130759Y436474D03*
D23*
X139141Y436474D03*
D19*
X147523Y436474D03*
X154229Y436474D03*
D22*
X167640Y436474D03*
D20*
X174498Y436474D03*
D27*
X88544Y436778D03*
D25*
X100584Y436778D03*
D15*
X107290Y436778D03*
D28*
X120701Y436778D03*
D15*
X130759Y436778D03*
D26*
X139141Y436778D03*
D15*
X147523Y436778D03*
X154229Y436778D03*
D25*
X167640Y436778D03*
D16*
X174498Y436778D03*
D27*
X88544Y437083D03*
D25*
X100584Y437083D03*
D15*
X107290Y437083D03*
D28*
X120701Y437083D03*
D15*
X130759Y437083D03*
D26*
X139141Y437083D03*
D15*
X147523Y437083D03*
X154229Y437083D03*
D25*
X167640Y437083D03*
D16*
X174498Y437083D03*
D29*
X88544Y437388D03*
D22*
X100584Y437388D03*
D19*
X107290Y437388D03*
D30*
X120701Y437388D03*
D19*
X130759Y437388D03*
D23*
X139141Y437388D03*
D19*
X147523Y437388D03*
X154229Y437388D03*
D22*
X167640Y437388D03*
D20*
X174498Y437388D03*
D27*
X88544Y437693D03*
D25*
X100584Y437693D03*
D15*
X107290Y437693D03*
D28*
X120701Y437693D03*
D15*
X130759Y437693D03*
D26*
X139141Y437693D03*
D15*
X147523Y437693D03*
X154229Y437693D03*
D25*
X167640Y437693D03*
D16*
X174498Y437693D03*
D29*
X88544Y437998D03*
D22*
X100584Y437998D03*
D19*
X107290Y437998D03*
D30*
X120701Y437998D03*
D19*
X130759Y437998D03*
D23*
X139141Y437998D03*
D19*
X147523Y437998D03*
X154229Y437998D03*
D22*
X167640Y437998D03*
D20*
X174498Y437998D03*
D27*
X88544Y438302D03*
D25*
X100584Y438302D03*
D15*
X107290Y438302D03*
D28*
X120701Y438302D03*
D15*
X130759Y438302D03*
D26*
X139141Y438302D03*
D15*
X147523Y438302D03*
X154229Y438302D03*
D25*
X167640Y438302D03*
D16*
X174498Y438302D03*
D27*
X88544Y438607D03*
D25*
X100584Y438607D03*
D15*
X107290Y438607D03*
D28*
X120701Y438607D03*
D15*
X130759Y438607D03*
D26*
X139141Y438607D03*
D15*
X147523Y438607D03*
X154229Y438607D03*
D25*
X167640Y438607D03*
D16*
X174498Y438607D03*
D29*
X88544Y438912D03*
D22*
X100584Y438912D03*
D19*
X107290Y438912D03*
D30*
X120701Y438912D03*
D19*
X130759Y438912D03*
D23*
X139141Y438912D03*
D19*
X147523Y438912D03*
X154229Y438912D03*
D22*
X167640Y438912D03*
D20*
X174498Y438912D03*
D27*
X88544Y439217D03*
D25*
X100584Y439217D03*
D15*
X107290Y439217D03*
D28*
X120701Y439217D03*
D15*
X130759Y439217D03*
D26*
X139141Y439217D03*
D15*
X147523Y439217D03*
X154229Y439217D03*
D25*
X167640Y439217D03*
D16*
X174498Y439217D03*
D17*
X86868Y439522D03*
D19*
X107290Y439522D03*
X113995Y439522D03*
D23*
X122377Y439522D03*
D19*
X130759Y439522D03*
D23*
X139141Y439522D03*
D19*
X147523Y439522D03*
X154229Y439522D03*
D22*
X167640Y439522D03*
D20*
X174498Y439522D03*
D13*
X86868Y439826D03*
D15*
X107290Y439826D03*
X113995Y439826D03*
D26*
X122377Y439826D03*
D15*
X130759Y439826D03*
D26*
X139141Y439826D03*
D15*
X147523Y439826D03*
X154229Y439826D03*
D25*
X167640Y439826D03*
D16*
X174498Y439826D03*
D13*
X86868Y440131D03*
D15*
X107290Y440131D03*
X113995Y440131D03*
D26*
X122377Y440131D03*
D15*
X130759Y440131D03*
D26*
X139141Y440131D03*
D15*
X147523Y440131D03*
X154229Y440131D03*
D25*
X167640Y440131D03*
D16*
X174498Y440131D03*
D17*
X86868Y440436D03*
D19*
X107290Y440436D03*
X113995Y440436D03*
D23*
X122377Y440436D03*
D19*
X130759Y440436D03*
D23*
X139141Y440436D03*
D19*
X147523Y440436D03*
X154229Y440436D03*
D22*
X167640Y440436D03*
D20*
X174498Y440436D03*
D13*
X86868Y440741D03*
D15*
X107290Y440741D03*
X113995Y440741D03*
D26*
X122377Y440741D03*
D15*
X130759Y440741D03*
D26*
X139141Y440741D03*
D15*
X147523Y440741D03*
X154229Y440741D03*
D25*
X167640Y440741D03*
D16*
X174498Y440741D03*
D17*
X86868Y441046D03*
D19*
X107290Y441046D03*
X113995Y441046D03*
D23*
X122377Y441046D03*
D19*
X130759Y441046D03*
D23*
X139141Y441046D03*
D19*
X147523Y441046D03*
X154229Y441046D03*
D22*
X167640Y441046D03*
D20*
X174498Y441046D03*
D13*
X86868Y441350D03*
D15*
X107290Y441350D03*
X113995Y441350D03*
D26*
X122377Y441350D03*
D15*
X130759Y441350D03*
D26*
X139141Y441350D03*
D15*
X147523Y441350D03*
X154229Y441350D03*
D25*
X167640Y441350D03*
D16*
X174498Y441350D03*
D13*
X86868Y441655D03*
D15*
X107290Y441655D03*
X113995Y441655D03*
D26*
X122377Y441655D03*
D15*
X130759Y441655D03*
D26*
X139141Y441655D03*
D15*
X147523Y441655D03*
X154229Y441655D03*
D25*
X167640Y441655D03*
D16*
X174498Y441655D03*
D17*
X86868Y441960D03*
D19*
X107290Y441960D03*
X113995Y441960D03*
D23*
X122377Y441960D03*
D19*
X130759Y441960D03*
D23*
X139141Y441960D03*
D19*
X147523Y441960D03*
X154229Y441960D03*
D22*
X167640Y441960D03*
D20*
X174498Y441960D03*
D13*
X86868Y442265D03*
D15*
X107290Y442265D03*
X113995Y442265D03*
D26*
X122377Y442265D03*
D15*
X130759Y442265D03*
D26*
X139141Y442265D03*
D15*
X147523Y442265D03*
X154229Y442265D03*
D25*
X167640Y442265D03*
D16*
X174498Y442265D03*
D17*
X86868Y442570D03*
D19*
X107290Y442570D03*
X113995Y442570D03*
D23*
X122377Y442570D03*
D19*
X130759Y442570D03*
D23*
X139141Y442570D03*
D19*
X147523Y442570D03*
X154229Y442570D03*
D22*
X167640Y442570D03*
D20*
X174498Y442570D03*
D13*
X86868Y442874D03*
D31*
X95555Y442874D03*
D15*
X120701Y442874D03*
D28*
X130759Y442874D03*
X144170Y442874D03*
D15*
X154229Y442874D03*
D25*
X167640Y442874D03*
D16*
X174498Y442874D03*
D13*
X86868Y443179D03*
D31*
X95555Y443179D03*
D15*
X120701Y443179D03*
D28*
X130759Y443179D03*
X144170Y443179D03*
D15*
X154229Y443179D03*
D25*
X167640Y443179D03*
D16*
X174498Y443179D03*
D17*
X86868Y443484D03*
D32*
X95555Y443484D03*
D19*
X120701Y443484D03*
D30*
X130759Y443484D03*
X144170Y443484D03*
D19*
X154229Y443484D03*
D22*
X167640Y443484D03*
D20*
X174498Y443484D03*
D13*
X86868Y443789D03*
D31*
X95555Y443789D03*
D15*
X120701Y443789D03*
D28*
X130759Y443789D03*
X144170Y443789D03*
D15*
X154229Y443789D03*
D25*
X167640Y443789D03*
D16*
X174498Y443789D03*
D17*
X86868Y444094D03*
D32*
X95555Y444094D03*
D19*
X120701Y444094D03*
D30*
X130759Y444094D03*
X144170Y444094D03*
D19*
X154229Y444094D03*
D22*
X167640Y444094D03*
D20*
X174498Y444094D03*
D13*
X86868Y444398D03*
D31*
X95555Y444398D03*
D15*
X120701Y444398D03*
D28*
X130759Y444398D03*
X144170Y444398D03*
D15*
X154229Y444398D03*
D25*
X167640Y444398D03*
D16*
X174498Y444398D03*
D13*
X86868Y444703D03*
D31*
X95555Y444703D03*
D15*
X120701Y444703D03*
D28*
X130759Y444703D03*
X144170Y444703D03*
D15*
X154229Y444703D03*
D25*
X167640Y444703D03*
D16*
X174498Y444703D03*
D17*
X86868Y445008D03*
D32*
X95555Y445008D03*
D19*
X120701Y445008D03*
D30*
X130759Y445008D03*
X144170Y445008D03*
D19*
X154229Y445008D03*
D22*
X167640Y445008D03*
D20*
X174498Y445008D03*
D13*
X86868Y445313D03*
D31*
X95555Y445313D03*
D15*
X120701Y445313D03*
D28*
X130759Y445313D03*
X144170Y445313D03*
D15*
X154229Y445313D03*
D25*
X167640Y445313D03*
D16*
X174498Y445313D03*
D17*
X86868Y445618D03*
D32*
X95555Y445618D03*
D19*
X120701Y445618D03*
D30*
X130759Y445618D03*
X144170Y445618D03*
D19*
X154229Y445618D03*
D22*
X167640Y445618D03*
D20*
X174498Y445618D03*
D13*
X86868Y445922D03*
D31*
X95555Y445922D03*
D15*
X120701Y445922D03*
D28*
X130759Y445922D03*
X144170Y445922D03*
D15*
X154229Y445922D03*
D25*
X167640Y445922D03*
D16*
X174498Y445922D03*
D13*
X86868Y446227D03*
D28*
X97231Y446227D03*
X110642Y446227D03*
X130759Y446227D03*
X144170Y446227D03*
D14*
X160934Y446227D03*
D16*
X174498Y446227D03*
D17*
X86868Y446532D03*
D30*
X97231Y446532D03*
X110642Y446532D03*
X130759Y446532D03*
X144170Y446532D03*
D18*
X160934Y446532D03*
D20*
X174498Y446532D03*
D13*
X86868Y446837D03*
D28*
X97231Y446837D03*
X110642Y446837D03*
X130759Y446837D03*
X144170Y446837D03*
D14*
X160934Y446837D03*
D16*
X174498Y446837D03*
D17*
X86868Y447142D03*
D30*
X97231Y447142D03*
X110642Y447142D03*
X130759Y447142D03*
X144170Y447142D03*
D18*
X160934Y447142D03*
D20*
X174498Y447142D03*
D13*
X86868Y447446D03*
D28*
X97231Y447446D03*
X110642Y447446D03*
X130759Y447446D03*
X144170Y447446D03*
D14*
X160934Y447446D03*
D16*
X174498Y447446D03*
D13*
X86868Y447751D03*
D28*
X97231Y447751D03*
X110642Y447751D03*
X130759Y447751D03*
X144170Y447751D03*
D14*
X160934Y447751D03*
D16*
X174498Y447751D03*
D17*
X86868Y448056D03*
D30*
X97231Y448056D03*
X110642Y448056D03*
X130759Y448056D03*
X144170Y448056D03*
D18*
X160934Y448056D03*
D20*
X174498Y448056D03*
D13*
X86868Y448361D03*
D28*
X97231Y448361D03*
X110642Y448361D03*
X130759Y448361D03*
X144170Y448361D03*
D14*
X160934Y448361D03*
D16*
X174498Y448361D03*
D17*
X86868Y448666D03*
D30*
X97231Y448666D03*
X110642Y448666D03*
X130759Y448666D03*
X144170Y448666D03*
D18*
X160934Y448666D03*
D20*
X174498Y448666D03*
D13*
X86868Y448970D03*
D28*
X97231Y448970D03*
X110642Y448970D03*
X130759Y448970D03*
X144170Y448970D03*
D14*
X160934Y448970D03*
D16*
X174498Y448970D03*
D13*
X86868Y449275D03*
D28*
X97231Y449275D03*
X110642Y449275D03*
X130759Y449275D03*
X144170Y449275D03*
D14*
X160934Y449275D03*
D16*
X174498Y449275D03*
D17*
X86868Y449580D03*
D22*
X100584Y449580D03*
D19*
X107290Y449580D03*
X113995Y449580D03*
D23*
X122377Y449580D03*
D32*
X132436Y449580D03*
D30*
X144170Y449580D03*
D20*
X174498Y449580D03*
D13*
X86868Y449885D03*
D25*
X100584Y449885D03*
D15*
X107290Y449885D03*
X113995Y449885D03*
D26*
X122377Y449885D03*
D31*
X132436Y449885D03*
D28*
X144170Y449885D03*
D16*
X174498Y449885D03*
D17*
X86868Y450190D03*
D22*
X100584Y450190D03*
D19*
X107290Y450190D03*
X113995Y450190D03*
D23*
X122377Y450190D03*
D32*
X132436Y450190D03*
D30*
X144170Y450190D03*
D20*
X174498Y450190D03*
D13*
X86868Y450494D03*
D25*
X100584Y450494D03*
D15*
X107290Y450494D03*
X113995Y450494D03*
D26*
X122377Y450494D03*
D31*
X132436Y450494D03*
D28*
X144170Y450494D03*
D16*
X174498Y450494D03*
D13*
X86868Y450799D03*
D25*
X100584Y450799D03*
D15*
X107290Y450799D03*
X113995Y450799D03*
D26*
X122377Y450799D03*
D31*
X132436Y450799D03*
D28*
X144170Y450799D03*
D16*
X174498Y450799D03*
D17*
X86868Y451104D03*
D22*
X100584Y451104D03*
D19*
X107290Y451104D03*
X113995Y451104D03*
D23*
X122377Y451104D03*
D32*
X132436Y451104D03*
D30*
X144170Y451104D03*
D20*
X174498Y451104D03*
D13*
X86868Y451409D03*
D25*
X100584Y451409D03*
D15*
X107290Y451409D03*
X113995Y451409D03*
D26*
X122377Y451409D03*
D31*
X132436Y451409D03*
D28*
X144170Y451409D03*
D16*
X174498Y451409D03*
D17*
X86868Y451714D03*
D22*
X100584Y451714D03*
D19*
X107290Y451714D03*
X113995Y451714D03*
D23*
X122377Y451714D03*
D32*
X132436Y451714D03*
D30*
X144170Y451714D03*
D20*
X174498Y451714D03*
D13*
X86868Y452018D03*
D25*
X100584Y452018D03*
D15*
X107290Y452018D03*
X113995Y452018D03*
D26*
X122377Y452018D03*
D31*
X132436Y452018D03*
D28*
X144170Y452018D03*
D16*
X174498Y452018D03*
D13*
X86868Y452323D03*
D25*
X100584Y452323D03*
D15*
X107290Y452323D03*
X113995Y452323D03*
D26*
X122377Y452323D03*
D31*
X132436Y452323D03*
D28*
X144170Y452323D03*
D16*
X174498Y452323D03*
D17*
X86868Y452628D03*
D22*
X100584Y452628D03*
D19*
X107290Y452628D03*
X113995Y452628D03*
D23*
X122377Y452628D03*
D32*
X132436Y452628D03*
D30*
X144170Y452628D03*
D20*
X174498Y452628D03*
D13*
X86868Y452933D03*
D25*
X93878Y452933D03*
X100584Y452933D03*
D28*
X110642Y452933D03*
D15*
X120701Y452933D03*
D33*
X161087Y452933D03*
D17*
X86868Y453238D03*
D22*
X93878Y453238D03*
X100584Y453238D03*
D30*
X110642Y453238D03*
D19*
X120701Y453238D03*
D34*
X161087Y453238D03*
D13*
X86868Y453542D03*
D25*
X93878Y453542D03*
X100584Y453542D03*
D28*
X110642Y453542D03*
D15*
X120701Y453542D03*
D33*
X161087Y453542D03*
D13*
X86868Y453847D03*
D25*
X93878Y453847D03*
X100584Y453847D03*
D28*
X110642Y453847D03*
D15*
X120701Y453847D03*
D33*
X161087Y453847D03*
D17*
X86868Y454152D03*
D22*
X93878Y454152D03*
X100584Y454152D03*
D30*
X110642Y454152D03*
D19*
X120701Y454152D03*
D34*
X161087Y454152D03*
D13*
X86868Y454457D03*
D25*
X93878Y454457D03*
X100584Y454457D03*
D28*
X110642Y454457D03*
D15*
X120701Y454457D03*
D33*
X161087Y454457D03*
D17*
X86868Y454762D03*
D22*
X93878Y454762D03*
X100584Y454762D03*
D30*
X110642Y454762D03*
D19*
X120701Y454762D03*
D34*
X161087Y454762D03*
D13*
X86868Y455066D03*
D25*
X93878Y455066D03*
X100584Y455066D03*
D28*
X110642Y455066D03*
D15*
X120701Y455066D03*
D33*
X161087Y455066D03*
D13*
X86868Y455371D03*
D25*
X93878Y455371D03*
X100584Y455371D03*
D28*
X110642Y455371D03*
D15*
X120701Y455371D03*
D33*
X161087Y455371D03*
D17*
X86868Y455676D03*
D22*
X93878Y455676D03*
X100584Y455676D03*
D30*
X110642Y455676D03*
D19*
X120701Y455676D03*
D34*
X161087Y455676D03*
D13*
X86868Y455981D03*
D25*
X93878Y455981D03*
X100584Y455981D03*
D28*
X110642Y455981D03*
D15*
X120701Y455981D03*
D33*
X161087Y455981D03*
D17*
X86868Y456286D03*
D23*
X122377Y456286D03*
D32*
X132436Y456286D03*
D19*
X154229Y456286D03*
D35*
X169469Y456286D03*
D13*
X86868Y456590D03*
D26*
X122377Y456590D03*
D31*
X132436Y456590D03*
D15*
X154229Y456590D03*
D36*
X169469Y456590D03*
D13*
X86868Y456895D03*
D26*
X122377Y456895D03*
D31*
X132436Y456895D03*
D15*
X154229Y456895D03*
D36*
X169469Y456895D03*
D17*
X86868Y457200D03*
D23*
X122377Y457200D03*
D32*
X132436Y457200D03*
D19*
X154229Y457200D03*
D35*
X169469Y457200D03*
D13*
X86868Y457505D03*
D26*
X122377Y457505D03*
D31*
X132436Y457505D03*
D15*
X154229Y457505D03*
D36*
X169469Y457505D03*
D17*
X86868Y457810D03*
D23*
X122377Y457810D03*
D32*
X132436Y457810D03*
D19*
X154229Y457810D03*
D35*
X169469Y457810D03*
D13*
X86868Y458114D03*
D26*
X122377Y458114D03*
D31*
X132436Y458114D03*
D15*
X154229Y458114D03*
D36*
X169469Y458114D03*
D13*
X86868Y458419D03*
D26*
X122377Y458419D03*
D31*
X132436Y458419D03*
D15*
X154229Y458419D03*
D36*
X169469Y458419D03*
D17*
X86868Y458724D03*
D23*
X122377Y458724D03*
D32*
X132436Y458724D03*
D19*
X154229Y458724D03*
D35*
X169469Y458724D03*
D13*
X86868Y459029D03*
D26*
X122377Y459029D03*
D31*
X132436Y459029D03*
D15*
X154229Y459029D03*
D36*
X169469Y459029D03*
D17*
X86868Y459334D03*
D23*
X122377Y459334D03*
D32*
X132436Y459334D03*
D19*
X154229Y459334D03*
D35*
X169469Y459334D03*
D13*
X86868Y459638D03*
D28*
X97231Y459638D03*
D25*
X110642Y459638D03*
D31*
X129083Y459638D03*
D26*
X139141Y459638D03*
D25*
X150876Y459638D03*
X160934Y459638D03*
X167640Y459638D03*
D16*
X174498Y459638D03*
D13*
X86868Y459943D03*
D28*
X97231Y459943D03*
D25*
X110642Y459943D03*
D31*
X129083Y459943D03*
D26*
X139141Y459943D03*
D25*
X150876Y459943D03*
X160934Y459943D03*
X167640Y459943D03*
D16*
X174498Y459943D03*
D17*
X86868Y460248D03*
D30*
X97231Y460248D03*
D22*
X110642Y460248D03*
D32*
X129083Y460248D03*
D23*
X139141Y460248D03*
D22*
X150876Y460248D03*
X160934Y460248D03*
X167640Y460248D03*
D20*
X174498Y460248D03*
D13*
X86868Y460553D03*
D28*
X97231Y460553D03*
D25*
X110642Y460553D03*
D31*
X129083Y460553D03*
D26*
X139141Y460553D03*
D25*
X150876Y460553D03*
X160934Y460553D03*
X167640Y460553D03*
D16*
X174498Y460553D03*
D17*
X86868Y460858D03*
D30*
X97231Y460858D03*
D22*
X110642Y460858D03*
D32*
X129083Y460858D03*
D23*
X139141Y460858D03*
D22*
X150876Y460858D03*
X160934Y460858D03*
X167640Y460858D03*
D20*
X174498Y460858D03*
D13*
X86868Y461162D03*
D28*
X97231Y461162D03*
D25*
X110642Y461162D03*
D31*
X129083Y461162D03*
D26*
X139141Y461162D03*
D25*
X150876Y461162D03*
X160934Y461162D03*
X167640Y461162D03*
D16*
X174498Y461162D03*
D13*
X86868Y461467D03*
D28*
X97231Y461467D03*
D25*
X110642Y461467D03*
D31*
X129083Y461467D03*
D26*
X139141Y461467D03*
D25*
X150876Y461467D03*
X160934Y461467D03*
X167640Y461467D03*
D16*
X174498Y461467D03*
D17*
X86868Y461772D03*
D30*
X97231Y461772D03*
D22*
X110642Y461772D03*
D32*
X129083Y461772D03*
D23*
X139141Y461772D03*
D22*
X150876Y461772D03*
X160934Y461772D03*
X167640Y461772D03*
D20*
X174498Y461772D03*
D13*
X86868Y462077D03*
D28*
X97231Y462077D03*
D25*
X110642Y462077D03*
D31*
X129083Y462077D03*
D26*
X139141Y462077D03*
D25*
X150876Y462077D03*
X160934Y462077D03*
X167640Y462077D03*
D16*
X174498Y462077D03*
D17*
X86868Y462382D03*
D30*
X97231Y462382D03*
D22*
X110642Y462382D03*
D32*
X129083Y462382D03*
D23*
X139141Y462382D03*
D22*
X150876Y462382D03*
X160934Y462382D03*
X167640Y462382D03*
D20*
X174498Y462382D03*
D13*
X86868Y462686D03*
D28*
X97231Y462686D03*
D25*
X110642Y462686D03*
D31*
X129083Y462686D03*
D26*
X139141Y462686D03*
D25*
X150876Y462686D03*
X160934Y462686D03*
X167640Y462686D03*
D16*
X174498Y462686D03*
D27*
X88544Y462991D03*
D25*
X100584Y462991D03*
D31*
X108966Y462991D03*
X119024Y462991D03*
X135788Y462991D03*
X145847Y462991D03*
D15*
X157582Y462991D03*
X164287Y462991D03*
D37*
X172822Y462991D03*
D29*
X88544Y463296D03*
D22*
X100584Y463296D03*
D32*
X108966Y463296D03*
X119024Y463296D03*
X135788Y463296D03*
X145847Y463296D03*
D19*
X157582Y463296D03*
X164287Y463296D03*
D38*
X172822Y463296D03*
D27*
X88544Y463601D03*
D25*
X100584Y463601D03*
D31*
X108966Y463601D03*
X119024Y463601D03*
X135788Y463601D03*
X145847Y463601D03*
D15*
X157582Y463601D03*
X164287Y463601D03*
D37*
X172822Y463601D03*
D29*
X88544Y463906D03*
D22*
X100584Y463906D03*
D32*
X108966Y463906D03*
X119024Y463906D03*
X135788Y463906D03*
X145847Y463906D03*
D19*
X157582Y463906D03*
X164287Y463906D03*
D38*
X172822Y463906D03*
D27*
X88544Y464210D03*
D25*
X100584Y464210D03*
D31*
X108966Y464210D03*
X119024Y464210D03*
X135788Y464210D03*
X145847Y464210D03*
D15*
X157582Y464210D03*
X164287Y464210D03*
D37*
X172822Y464210D03*
D27*
X88544Y464515D03*
D25*
X100584Y464515D03*
D31*
X108966Y464515D03*
X119024Y464515D03*
X135788Y464515D03*
X145847Y464515D03*
D15*
X157582Y464515D03*
X164287Y464515D03*
D37*
X172822Y464515D03*
D29*
X88544Y464820D03*
D22*
X100584Y464820D03*
D32*
X108966Y464820D03*
X119024Y464820D03*
X135788Y464820D03*
X145847Y464820D03*
D19*
X157582Y464820D03*
X164287Y464820D03*
D38*
X172822Y464820D03*
D27*
X88544Y465125D03*
D25*
X100584Y465125D03*
D31*
X108966Y465125D03*
X119024Y465125D03*
X135788Y465125D03*
X145847Y465125D03*
D15*
X157582Y465125D03*
X164287Y465125D03*
D37*
X172822Y465125D03*
D29*
X88544Y465430D03*
D22*
X100584Y465430D03*
D32*
X108966Y465430D03*
X119024Y465430D03*
X135788Y465430D03*
X145847Y465430D03*
D19*
X157582Y465430D03*
X164287Y465430D03*
D38*
X172822Y465430D03*
D27*
X88544Y465734D03*
D25*
X100584Y465734D03*
D31*
X108966Y465734D03*
X119024Y465734D03*
X135788Y465734D03*
X145847Y465734D03*
D15*
X157582Y465734D03*
X164287Y465734D03*
D37*
X172822Y465734D03*
D27*
X88544Y466039D03*
D25*
X100584Y466039D03*
D31*
X108966Y466039D03*
X119024Y466039D03*
X135788Y466039D03*
X145847Y466039D03*
D15*
X157582Y466039D03*
X164287Y466039D03*
D37*
X172822Y466039D03*
D17*
X86868Y466344D03*
D30*
X97231Y466344D03*
D19*
X113995Y466344D03*
D22*
X127406Y466344D03*
D32*
X135788Y466344D03*
D39*
X154229Y466344D03*
D38*
X172822Y466344D03*
D13*
X86868Y466649D03*
D28*
X97231Y466649D03*
D15*
X113995Y466649D03*
D25*
X127406Y466649D03*
D31*
X135788Y466649D03*
D40*
X154229Y466649D03*
D37*
X172822Y466649D03*
D17*
X86868Y466954D03*
D30*
X97231Y466954D03*
D19*
X113995Y466954D03*
D22*
X127406Y466954D03*
D32*
X135788Y466954D03*
D39*
X154229Y466954D03*
D38*
X172822Y466954D03*
D13*
X86868Y467258D03*
D28*
X97231Y467258D03*
D15*
X113995Y467258D03*
D25*
X127406Y467258D03*
D31*
X135788Y467258D03*
D40*
X154229Y467258D03*
D37*
X172822Y467258D03*
D13*
X86868Y467563D03*
D28*
X97231Y467563D03*
D15*
X113995Y467563D03*
D25*
X127406Y467563D03*
D31*
X135788Y467563D03*
D40*
X154229Y467563D03*
D37*
X172822Y467563D03*
D17*
X86868Y467868D03*
D30*
X97231Y467868D03*
D19*
X113995Y467868D03*
D22*
X127406Y467868D03*
D32*
X135788Y467868D03*
D39*
X154229Y467868D03*
D38*
X172822Y467868D03*
D13*
X86868Y468173D03*
D28*
X97231Y468173D03*
D15*
X113995Y468173D03*
D25*
X127406Y468173D03*
D31*
X135788Y468173D03*
D40*
X154229Y468173D03*
D37*
X172822Y468173D03*
D17*
X86868Y468478D03*
D30*
X97231Y468478D03*
D19*
X113995Y468478D03*
D22*
X127406Y468478D03*
D32*
X135788Y468478D03*
D39*
X154229Y468478D03*
D38*
X172822Y468478D03*
D13*
X86868Y468782D03*
D28*
X97231Y468782D03*
D15*
X113995Y468782D03*
D25*
X127406Y468782D03*
D31*
X135788Y468782D03*
D40*
X154229Y468782D03*
D37*
X172822Y468782D03*
D13*
X86868Y469087D03*
D28*
X97231Y469087D03*
D15*
X113995Y469087D03*
D25*
X127406Y469087D03*
D31*
X135788Y469087D03*
D40*
X154229Y469087D03*
D37*
X172822Y469087D03*
D17*
X86868Y469392D03*
D30*
X97231Y469392D03*
D19*
X113995Y469392D03*
D22*
X127406Y469392D03*
D32*
X135788Y469392D03*
D39*
X154229Y469392D03*
D38*
X172822Y469392D03*
D13*
X86868Y469697D03*
D25*
X100584Y469697D03*
D31*
X145847Y469697D03*
X159258Y469697D03*
D37*
X172822Y469697D03*
D17*
X86868Y470002D03*
D22*
X100584Y470002D03*
D32*
X145847Y470002D03*
X159258Y470002D03*
D38*
X172822Y470002D03*
D13*
X86868Y470306D03*
D25*
X100584Y470306D03*
D31*
X145847Y470306D03*
X159258Y470306D03*
D37*
X172822Y470306D03*
D13*
X86868Y470611D03*
D25*
X100584Y470611D03*
D31*
X145847Y470611D03*
X159258Y470611D03*
D37*
X172822Y470611D03*
D17*
X86868Y470916D03*
D22*
X100584Y470916D03*
D32*
X145847Y470916D03*
X159258Y470916D03*
D38*
X172822Y470916D03*
D13*
X86868Y471221D03*
D25*
X100584Y471221D03*
D31*
X145847Y471221D03*
X159258Y471221D03*
D37*
X172822Y471221D03*
D17*
X86868Y471526D03*
D22*
X100584Y471526D03*
D32*
X145847Y471526D03*
X159258Y471526D03*
D38*
X172822Y471526D03*
D13*
X86868Y471830D03*
D25*
X100584Y471830D03*
D31*
X145847Y471830D03*
X159258Y471830D03*
D37*
X172822Y471830D03*
D13*
X86868Y472135D03*
D25*
X100584Y472135D03*
D31*
X145847Y472135D03*
X159258Y472135D03*
D37*
X172822Y472135D03*
D17*
X86868Y472440D03*
D22*
X100584Y472440D03*
D32*
X145847Y472440D03*
X159258Y472440D03*
D38*
X172822Y472440D03*
D13*
X86868Y472745D03*
D25*
X100584Y472745D03*
D31*
X145847Y472745D03*
X159258Y472745D03*
D37*
X172822Y472745D03*
D21*
X90221Y473050D03*
D23*
X105613Y473050D03*
D30*
X120701Y473050D03*
D22*
X134112Y473050D03*
D32*
X149200Y473050D03*
X159258Y473050D03*
D20*
X174498Y473050D03*
D24*
X90221Y473354D03*
D26*
X105613Y473354D03*
D28*
X120701Y473354D03*
D25*
X134112Y473354D03*
D31*
X149200Y473354D03*
X159258Y473354D03*
D16*
X174498Y473354D03*
D24*
X90221Y473659D03*
D26*
X105613Y473659D03*
D28*
X120701Y473659D03*
D25*
X134112Y473659D03*
D31*
X149200Y473659D03*
X159258Y473659D03*
D16*
X174498Y473659D03*
D21*
X90221Y473964D03*
D23*
X105613Y473964D03*
D30*
X120701Y473964D03*
D22*
X134112Y473964D03*
D32*
X149200Y473964D03*
X159258Y473964D03*
D20*
X174498Y473964D03*
D24*
X90221Y474269D03*
D26*
X105613Y474269D03*
D28*
X120701Y474269D03*
D25*
X134112Y474269D03*
D31*
X149200Y474269D03*
X159258Y474269D03*
D16*
X174498Y474269D03*
D21*
X90221Y474574D03*
D23*
X105613Y474574D03*
D30*
X120701Y474574D03*
D22*
X134112Y474574D03*
D32*
X149200Y474574D03*
X159258Y474574D03*
D20*
X174498Y474574D03*
D24*
X90221Y474878D03*
D26*
X105613Y474878D03*
D28*
X120701Y474878D03*
D25*
X134112Y474878D03*
D31*
X149200Y474878D03*
X159258Y474878D03*
D16*
X174498Y474878D03*
D24*
X90221Y475183D03*
D26*
X105613Y475183D03*
D28*
X120701Y475183D03*
D25*
X134112Y475183D03*
D31*
X149200Y475183D03*
X159258Y475183D03*
D16*
X174498Y475183D03*
D21*
X90221Y475488D03*
D23*
X105613Y475488D03*
D30*
X120701Y475488D03*
D22*
X134112Y475488D03*
D32*
X149200Y475488D03*
X159258Y475488D03*
D20*
X174498Y475488D03*
D24*
X90221Y475793D03*
D26*
X105613Y475793D03*
D28*
X120701Y475793D03*
D25*
X134112Y475793D03*
D31*
X149200Y475793D03*
X159258Y475793D03*
D16*
X174498Y475793D03*
D21*
X90221Y476098D03*
D23*
X105613Y476098D03*
D30*
X120701Y476098D03*
D22*
X134112Y476098D03*
D32*
X149200Y476098D03*
X159258Y476098D03*
D20*
X174498Y476098D03*
D41*
X95250Y476402D03*
D42*
X115672Y476402D03*
D15*
X147523Y476402D03*
D25*
X167640Y476402D03*
D16*
X174498Y476402D03*
D41*
X95250Y476707D03*
D42*
X115672Y476707D03*
D15*
X147523Y476707D03*
D25*
X167640Y476707D03*
D16*
X174498Y476707D03*
D43*
X95250Y477012D03*
D44*
X115672Y477012D03*
D19*
X147523Y477012D03*
D22*
X167640Y477012D03*
D20*
X174498Y477012D03*
D41*
X95250Y477317D03*
D42*
X115672Y477317D03*
D15*
X147523Y477317D03*
D25*
X167640Y477317D03*
D16*
X174498Y477317D03*
D43*
X95250Y477622D03*
D44*
X115672Y477622D03*
D19*
X147523Y477622D03*
D22*
X167640Y477622D03*
D20*
X174498Y477622D03*
D41*
X95250Y477926D03*
D42*
X115672Y477926D03*
D15*
X147523Y477926D03*
D25*
X167640Y477926D03*
D16*
X174498Y477926D03*
D41*
X95250Y478231D03*
D42*
X115672Y478231D03*
D15*
X147523Y478231D03*
D25*
X167640Y478231D03*
D16*
X174498Y478231D03*
D43*
X95250Y478536D03*
D44*
X115672Y478536D03*
D19*
X147523Y478536D03*
D22*
X167640Y478536D03*
D20*
X174498Y478536D03*
D41*
X95250Y478841D03*
D42*
X115672Y478841D03*
D15*
X147523Y478841D03*
D25*
X167640Y478841D03*
D16*
X174498Y478841D03*
D43*
X95250Y479146D03*
D44*
X115672Y479146D03*
D19*
X147523Y479146D03*
D22*
X167640Y479146D03*
D20*
X174498Y479146D03*
D41*
X95250Y479450D03*
D42*
X115672Y479450D03*
D15*
X147523Y479450D03*
D25*
X167640Y479450D03*
D16*
X174498Y479450D03*
D27*
X88544Y479755D03*
D28*
X100584Y479755D03*
D25*
X110642Y479755D03*
D15*
X120701Y479755D03*
D25*
X134112Y479755D03*
D31*
X142494Y479755D03*
D25*
X150876Y479755D03*
D45*
X166116Y479755D03*
D29*
X88544Y480060D03*
D30*
X100584Y480060D03*
D22*
X110642Y480060D03*
D19*
X120701Y480060D03*
D22*
X134112Y480060D03*
D32*
X142494Y480060D03*
D22*
X150876Y480060D03*
D46*
X166116Y480060D03*
D27*
X88544Y480365D03*
D28*
X100584Y480365D03*
D25*
X110642Y480365D03*
D15*
X120701Y480365D03*
D25*
X134112Y480365D03*
D31*
X142494Y480365D03*
D25*
X150876Y480365D03*
D45*
X166116Y480365D03*
D29*
X88544Y480670D03*
D30*
X100584Y480670D03*
D22*
X110642Y480670D03*
D19*
X120701Y480670D03*
D22*
X134112Y480670D03*
D32*
X142494Y480670D03*
D22*
X150876Y480670D03*
D46*
X166116Y480670D03*
D27*
X88544Y480974D03*
D28*
X100584Y480974D03*
D25*
X110642Y480974D03*
D15*
X120701Y480974D03*
D25*
X134112Y480974D03*
D31*
X142494Y480974D03*
D25*
X150876Y480974D03*
D45*
X166116Y480974D03*
D27*
X88544Y481279D03*
D28*
X100584Y481279D03*
D25*
X110642Y481279D03*
D15*
X120701Y481279D03*
D25*
X134112Y481279D03*
D31*
X142494Y481279D03*
D25*
X150876Y481279D03*
D45*
X166116Y481279D03*
D29*
X88544Y481584D03*
D30*
X100584Y481584D03*
D22*
X110642Y481584D03*
D19*
X120701Y481584D03*
D22*
X134112Y481584D03*
D32*
X142494Y481584D03*
D22*
X150876Y481584D03*
D46*
X166116Y481584D03*
D27*
X88544Y481889D03*
D28*
X100584Y481889D03*
D25*
X110642Y481889D03*
D15*
X120701Y481889D03*
D25*
X134112Y481889D03*
D31*
X142494Y481889D03*
D25*
X150876Y481889D03*
D45*
X166116Y481889D03*
D29*
X88544Y482194D03*
D30*
X100584Y482194D03*
D22*
X110642Y482194D03*
D19*
X120701Y482194D03*
D22*
X134112Y482194D03*
D32*
X142494Y482194D03*
D22*
X150876Y482194D03*
D46*
X166116Y482194D03*
D27*
X88544Y482498D03*
D28*
X100584Y482498D03*
D25*
X110642Y482498D03*
D15*
X120701Y482498D03*
D25*
X134112Y482498D03*
D31*
X142494Y482498D03*
D25*
X150876Y482498D03*
D45*
X166116Y482498D03*
D27*
X88544Y482803D03*
D28*
X100584Y482803D03*
D25*
X110642Y482803D03*
D15*
X120701Y482803D03*
D25*
X134112Y482803D03*
D31*
X142494Y482803D03*
D25*
X150876Y482803D03*
D45*
X166116Y482803D03*
D17*
X86868Y483108D03*
D22*
X93878Y483108D03*
D32*
X108966Y483108D03*
X119024Y483108D03*
X129083Y483108D03*
D19*
X140818Y483108D03*
X147523Y483108D03*
D23*
X155905Y483108D03*
D20*
X174498Y483108D03*
D13*
X86868Y483413D03*
D25*
X93878Y483413D03*
D31*
X108966Y483413D03*
X119024Y483413D03*
X129083Y483413D03*
D15*
X140818Y483413D03*
X147523Y483413D03*
D26*
X155905Y483413D03*
D16*
X174498Y483413D03*
D17*
X86868Y483718D03*
D22*
X93878Y483718D03*
D32*
X108966Y483718D03*
X119024Y483718D03*
X129083Y483718D03*
D19*
X140818Y483718D03*
X147523Y483718D03*
D23*
X155905Y483718D03*
D20*
X174498Y483718D03*
D13*
X86868Y484022D03*
D25*
X93878Y484022D03*
D31*
X108966Y484022D03*
X119024Y484022D03*
X129083Y484022D03*
D15*
X140818Y484022D03*
X147523Y484022D03*
D26*
X155905Y484022D03*
D16*
X174498Y484022D03*
D13*
X86868Y484327D03*
D25*
X93878Y484327D03*
D31*
X108966Y484327D03*
X119024Y484327D03*
X129083Y484327D03*
D15*
X140818Y484327D03*
X147523Y484327D03*
D26*
X155905Y484327D03*
D16*
X174498Y484327D03*
D17*
X86868Y484632D03*
D22*
X93878Y484632D03*
D32*
X108966Y484632D03*
X119024Y484632D03*
X129083Y484632D03*
D19*
X140818Y484632D03*
X147523Y484632D03*
D23*
X155905Y484632D03*
D20*
X174498Y484632D03*
D13*
X86868Y484937D03*
D25*
X93878Y484937D03*
D31*
X108966Y484937D03*
X119024Y484937D03*
X129083Y484937D03*
D15*
X140818Y484937D03*
X147523Y484937D03*
D26*
X155905Y484937D03*
D16*
X174498Y484937D03*
D17*
X86868Y485242D03*
D22*
X93878Y485242D03*
D32*
X108966Y485242D03*
X119024Y485242D03*
X129083Y485242D03*
D19*
X140818Y485242D03*
X147523Y485242D03*
D23*
X155905Y485242D03*
D20*
X174498Y485242D03*
D13*
X86868Y485546D03*
D25*
X93878Y485546D03*
D31*
X108966Y485546D03*
X119024Y485546D03*
X129083Y485546D03*
D15*
X140818Y485546D03*
X147523Y485546D03*
D26*
X155905Y485546D03*
D16*
X174498Y485546D03*
D13*
X86868Y485851D03*
D25*
X93878Y485851D03*
D31*
X108966Y485851D03*
X119024Y485851D03*
X129083Y485851D03*
D15*
X140818Y485851D03*
X147523Y485851D03*
D26*
X155905Y485851D03*
D16*
X174498Y485851D03*
D17*
X86868Y486156D03*
D22*
X93878Y486156D03*
D32*
X108966Y486156D03*
X119024Y486156D03*
X129083Y486156D03*
D19*
X140818Y486156D03*
X147523Y486156D03*
D23*
X155905Y486156D03*
D20*
X174498Y486156D03*
D47*
X100279Y486461D03*
D28*
X124054Y486461D03*
D25*
X134112Y486461D03*
D48*
X157734Y486461D03*
D49*
X100279Y486766D03*
D30*
X124054Y486766D03*
D22*
X134112Y486766D03*
D50*
X157734Y486766D03*
D47*
X100279Y487070D03*
D28*
X124054Y487070D03*
D25*
X134112Y487070D03*
D48*
X157734Y487070D03*
D47*
X100279Y487375D03*
D28*
X124054Y487375D03*
D25*
X134112Y487375D03*
D48*
X157734Y487375D03*
D49*
X100279Y487680D03*
D30*
X124054Y487680D03*
D22*
X134112Y487680D03*
D50*
X157734Y487680D03*
D47*
X100279Y487985D03*
D28*
X124054Y487985D03*
D25*
X134112Y487985D03*
D48*
X157734Y487985D03*
D49*
X100279Y488290D03*
D30*
X124054Y488290D03*
D22*
X134112Y488290D03*
D50*
X157734Y488290D03*
D47*
X100279Y488594D03*
D28*
X124054Y488594D03*
D25*
X134112Y488594D03*
D48*
X157734Y488594D03*
D47*
X100279Y488899D03*
D28*
X124054Y488899D03*
D25*
X134112Y488899D03*
D48*
X157734Y488899D03*
D49*
X100279Y489204D03*
D30*
X124054Y489204D03*
D22*
X134112Y489204D03*
D50*
X157734Y489204D03*
D47*
X100279Y489509D03*
D28*
X124054Y489509D03*
D25*
X134112Y489509D03*
D48*
X157734Y489509D03*
D17*
X86868Y489814D03*
D19*
X113995Y489814D03*
X120701Y489814D03*
D22*
X127406Y489814D03*
X134112Y489814D03*
D19*
X140818Y489814D03*
X147523Y489814D03*
D20*
X174498Y489814D03*
D13*
X86868Y490118D03*
D15*
X113995Y490118D03*
X120701Y490118D03*
D25*
X127406Y490118D03*
X134112Y490118D03*
D15*
X140818Y490118D03*
X147523Y490118D03*
D16*
X174498Y490118D03*
D13*
X86868Y490423D03*
D15*
X113995Y490423D03*
X120701Y490423D03*
D25*
X127406Y490423D03*
X134112Y490423D03*
D15*
X140818Y490423D03*
X147523Y490423D03*
D16*
X174498Y490423D03*
D17*
X86868Y490728D03*
D19*
X113995Y490728D03*
X120701Y490728D03*
D22*
X127406Y490728D03*
X134112Y490728D03*
D19*
X140818Y490728D03*
X147523Y490728D03*
D20*
X174498Y490728D03*
D13*
X86868Y491033D03*
D15*
X113995Y491033D03*
X120701Y491033D03*
D25*
X127406Y491033D03*
X134112Y491033D03*
D15*
X140818Y491033D03*
X147523Y491033D03*
D16*
X174498Y491033D03*
D17*
X86868Y491338D03*
D19*
X113995Y491338D03*
X120701Y491338D03*
D22*
X127406Y491338D03*
X134112Y491338D03*
D19*
X140818Y491338D03*
X147523Y491338D03*
D20*
X174498Y491338D03*
D13*
X86868Y491642D03*
D15*
X113995Y491642D03*
X120701Y491642D03*
D25*
X127406Y491642D03*
X134112Y491642D03*
D15*
X140818Y491642D03*
X147523Y491642D03*
D16*
X174498Y491642D03*
D13*
X86868Y491947D03*
D15*
X113995Y491947D03*
X120701Y491947D03*
D25*
X127406Y491947D03*
X134112Y491947D03*
D15*
X140818Y491947D03*
X147523Y491947D03*
D16*
X174498Y491947D03*
D17*
X86868Y492252D03*
D19*
X113995Y492252D03*
X120701Y492252D03*
D22*
X127406Y492252D03*
X134112Y492252D03*
D19*
X140818Y492252D03*
X147523Y492252D03*
D20*
X174498Y492252D03*
D13*
X86868Y492557D03*
D15*
X113995Y492557D03*
X120701Y492557D03*
D25*
X127406Y492557D03*
X134112Y492557D03*
D15*
X140818Y492557D03*
X147523Y492557D03*
D16*
X174498Y492557D03*
D17*
X86868Y492862D03*
D19*
X113995Y492862D03*
X120701Y492862D03*
D22*
X127406Y492862D03*
X134112Y492862D03*
D19*
X140818Y492862D03*
X147523Y492862D03*
D20*
X174498Y492862D03*
D13*
X86868Y493166D03*
D14*
X100584Y493166D03*
D15*
X113995Y493166D03*
X120701Y493166D03*
X130759Y493166D03*
D28*
X144170Y493166D03*
D14*
X160934Y493166D03*
D16*
X174498Y493166D03*
D13*
X86868Y493471D03*
D14*
X100584Y493471D03*
D15*
X113995Y493471D03*
X120701Y493471D03*
X130759Y493471D03*
D28*
X144170Y493471D03*
D14*
X160934Y493471D03*
D16*
X174498Y493471D03*
D17*
X86868Y493776D03*
D18*
X100584Y493776D03*
D19*
X113995Y493776D03*
X120701Y493776D03*
X130759Y493776D03*
D30*
X144170Y493776D03*
D18*
X160934Y493776D03*
D20*
X174498Y493776D03*
D13*
X86868Y494081D03*
D14*
X100584Y494081D03*
D15*
X113995Y494081D03*
X120701Y494081D03*
X130759Y494081D03*
D28*
X144170Y494081D03*
D14*
X160934Y494081D03*
D16*
X174498Y494081D03*
D17*
X86868Y494386D03*
D18*
X100584Y494386D03*
D19*
X113995Y494386D03*
X120701Y494386D03*
X130759Y494386D03*
D30*
X144170Y494386D03*
D18*
X160934Y494386D03*
D20*
X174498Y494386D03*
D13*
X86868Y494690D03*
D14*
X100584Y494690D03*
D15*
X113995Y494690D03*
X120701Y494690D03*
X130759Y494690D03*
D28*
X144170Y494690D03*
D14*
X160934Y494690D03*
D16*
X174498Y494690D03*
D13*
X86868Y494995D03*
D14*
X100584Y494995D03*
D15*
X113995Y494995D03*
X120701Y494995D03*
X130759Y494995D03*
D28*
X144170Y494995D03*
D14*
X160934Y494995D03*
D16*
X174498Y494995D03*
D17*
X86868Y495300D03*
D18*
X100584Y495300D03*
D19*
X113995Y495300D03*
X120701Y495300D03*
X130759Y495300D03*
D30*
X144170Y495300D03*
D18*
X160934Y495300D03*
D20*
X174498Y495300D03*
D13*
X86868Y495605D03*
D14*
X100584Y495605D03*
D15*
X113995Y495605D03*
X120701Y495605D03*
X130759Y495605D03*
D28*
X144170Y495605D03*
D14*
X160934Y495605D03*
D16*
X174498Y495605D03*
D17*
X86868Y495910D03*
D18*
X100584Y495910D03*
D19*
X113995Y495910D03*
X120701Y495910D03*
X130759Y495910D03*
D30*
X144170Y495910D03*
D18*
X160934Y495910D03*
D20*
X174498Y495910D03*
D13*
X86868Y496214D03*
D14*
X100584Y496214D03*
D15*
X113995Y496214D03*
X120701Y496214D03*
X130759Y496214D03*
D28*
X144170Y496214D03*
D14*
X160934Y496214D03*
D16*
X174498Y496214D03*
D13*
X86868Y496519D03*
D25*
X93878Y496519D03*
D15*
X107290Y496519D03*
X113995Y496519D03*
D25*
X127406Y496519D03*
D26*
X139141Y496519D03*
D15*
X147523Y496519D03*
X154229Y496519D03*
D25*
X167640Y496519D03*
D16*
X174498Y496519D03*
D17*
X86868Y496824D03*
D22*
X93878Y496824D03*
D19*
X107290Y496824D03*
X113995Y496824D03*
D22*
X127406Y496824D03*
D23*
X139141Y496824D03*
D19*
X147523Y496824D03*
X154229Y496824D03*
D22*
X167640Y496824D03*
D20*
X174498Y496824D03*
D13*
X86868Y497129D03*
D25*
X93878Y497129D03*
D15*
X107290Y497129D03*
X113995Y497129D03*
D25*
X127406Y497129D03*
D26*
X139141Y497129D03*
D15*
X147523Y497129D03*
X154229Y497129D03*
D25*
X167640Y497129D03*
D16*
X174498Y497129D03*
D17*
X86868Y497434D03*
D22*
X93878Y497434D03*
D19*
X107290Y497434D03*
X113995Y497434D03*
D22*
X127406Y497434D03*
D23*
X139141Y497434D03*
D19*
X147523Y497434D03*
X154229Y497434D03*
D22*
X167640Y497434D03*
D20*
X174498Y497434D03*
D13*
X86868Y497738D03*
D25*
X93878Y497738D03*
D15*
X107290Y497738D03*
X113995Y497738D03*
D25*
X127406Y497738D03*
D26*
X139141Y497738D03*
D15*
X147523Y497738D03*
X154229Y497738D03*
D25*
X167640Y497738D03*
D16*
X174498Y497738D03*
D13*
X86868Y498043D03*
D25*
X93878Y498043D03*
D15*
X107290Y498043D03*
X113995Y498043D03*
D25*
X127406Y498043D03*
D26*
X139141Y498043D03*
D15*
X147523Y498043D03*
X154229Y498043D03*
D25*
X167640Y498043D03*
D16*
X174498Y498043D03*
D17*
X86868Y498348D03*
D22*
X93878Y498348D03*
D19*
X107290Y498348D03*
X113995Y498348D03*
D22*
X127406Y498348D03*
D23*
X139141Y498348D03*
D19*
X147523Y498348D03*
X154229Y498348D03*
D22*
X167640Y498348D03*
D20*
X174498Y498348D03*
D13*
X86868Y498653D03*
D25*
X93878Y498653D03*
D15*
X107290Y498653D03*
X113995Y498653D03*
D25*
X127406Y498653D03*
D26*
X139141Y498653D03*
D15*
X147523Y498653D03*
X154229Y498653D03*
D25*
X167640Y498653D03*
D16*
X174498Y498653D03*
D17*
X86868Y498958D03*
D22*
X93878Y498958D03*
D19*
X107290Y498958D03*
X113995Y498958D03*
D22*
X127406Y498958D03*
D23*
X139141Y498958D03*
D19*
X147523Y498958D03*
X154229Y498958D03*
D22*
X167640Y498958D03*
D20*
X174498Y498958D03*
D13*
X86868Y499262D03*
D25*
X93878Y499262D03*
D15*
X107290Y499262D03*
X113995Y499262D03*
D25*
X127406Y499262D03*
D26*
X139141Y499262D03*
D15*
X147523Y499262D03*
X154229Y499262D03*
D25*
X167640Y499262D03*
D16*
X174498Y499262D03*
D13*
X86868Y499567D03*
D25*
X93878Y499567D03*
D15*
X107290Y499567D03*
X113995Y499567D03*
D25*
X127406Y499567D03*
D26*
X139141Y499567D03*
D15*
X147523Y499567D03*
X154229Y499567D03*
D25*
X167640Y499567D03*
D16*
X174498Y499567D03*
D17*
X86868Y499872D03*
D22*
X93878Y499872D03*
D19*
X107290Y499872D03*
D30*
X117348Y499872D03*
D22*
X134112Y499872D03*
D19*
X147523Y499872D03*
X154229Y499872D03*
D22*
X167640Y499872D03*
D20*
X174498Y499872D03*
D13*
X86868Y500177D03*
D25*
X93878Y500177D03*
D15*
X107290Y500177D03*
D28*
X117348Y500177D03*
D25*
X134112Y500177D03*
D15*
X147523Y500177D03*
X154229Y500177D03*
D25*
X167640Y500177D03*
D16*
X174498Y500177D03*
D17*
X86868Y500482D03*
D22*
X93878Y500482D03*
D19*
X107290Y500482D03*
D30*
X117348Y500482D03*
D22*
X134112Y500482D03*
D19*
X147523Y500482D03*
X154229Y500482D03*
D22*
X167640Y500482D03*
D20*
X174498Y500482D03*
D13*
X86868Y500786D03*
D25*
X93878Y500786D03*
D15*
X107290Y500786D03*
D28*
X117348Y500786D03*
D25*
X134112Y500786D03*
D15*
X147523Y500786D03*
X154229Y500786D03*
D25*
X167640Y500786D03*
D16*
X174498Y500786D03*
D13*
X86868Y501091D03*
D25*
X93878Y501091D03*
D15*
X107290Y501091D03*
D28*
X117348Y501091D03*
D25*
X134112Y501091D03*
D15*
X147523Y501091D03*
X154229Y501091D03*
D25*
X167640Y501091D03*
D16*
X174498Y501091D03*
D17*
X86868Y501396D03*
D22*
X93878Y501396D03*
D19*
X107290Y501396D03*
D30*
X117348Y501396D03*
D22*
X134112Y501396D03*
D19*
X147523Y501396D03*
X154229Y501396D03*
D22*
X167640Y501396D03*
D20*
X174498Y501396D03*
D13*
X86868Y501701D03*
D25*
X93878Y501701D03*
D15*
X107290Y501701D03*
D28*
X117348Y501701D03*
D25*
X134112Y501701D03*
D15*
X147523Y501701D03*
X154229Y501701D03*
D25*
X167640Y501701D03*
D16*
X174498Y501701D03*
D17*
X86868Y502006D03*
D22*
X93878Y502006D03*
D19*
X107290Y502006D03*
D30*
X117348Y502006D03*
D22*
X134112Y502006D03*
D19*
X147523Y502006D03*
X154229Y502006D03*
D22*
X167640Y502006D03*
D20*
X174498Y502006D03*
D13*
X86868Y502310D03*
D25*
X93878Y502310D03*
D15*
X107290Y502310D03*
D28*
X117348Y502310D03*
D25*
X134112Y502310D03*
D15*
X147523Y502310D03*
X154229Y502310D03*
D25*
X167640Y502310D03*
D16*
X174498Y502310D03*
D13*
X86868Y502615D03*
D25*
X93878Y502615D03*
D15*
X107290Y502615D03*
D28*
X117348Y502615D03*
D25*
X134112Y502615D03*
D15*
X147523Y502615D03*
X154229Y502615D03*
D25*
X167640Y502615D03*
D16*
X174498Y502615D03*
D17*
X86868Y502920D03*
D22*
X93878Y502920D03*
D19*
X107290Y502920D03*
D30*
X117348Y502920D03*
D22*
X134112Y502920D03*
D19*
X147523Y502920D03*
X154229Y502920D03*
D22*
X167640Y502920D03*
D20*
X174498Y502920D03*
D13*
X86868Y503225D03*
D25*
X93878Y503225D03*
D15*
X107290Y503225D03*
D31*
X115672Y503225D03*
D15*
X124054Y503225D03*
D31*
X132436Y503225D03*
D15*
X147523Y503225D03*
X154229Y503225D03*
D25*
X167640Y503225D03*
D16*
X174498Y503225D03*
D17*
X86868Y503530D03*
D22*
X93878Y503530D03*
D19*
X107290Y503530D03*
D32*
X115672Y503530D03*
D19*
X124054Y503530D03*
D32*
X132436Y503530D03*
D19*
X147523Y503530D03*
X154229Y503530D03*
D22*
X167640Y503530D03*
D20*
X174498Y503530D03*
D13*
X86868Y503834D03*
D25*
X93878Y503834D03*
D15*
X107290Y503834D03*
D31*
X115672Y503834D03*
D15*
X124054Y503834D03*
D31*
X132436Y503834D03*
D15*
X147523Y503834D03*
X154229Y503834D03*
D25*
X167640Y503834D03*
D16*
X174498Y503834D03*
D13*
X86868Y504139D03*
D25*
X93878Y504139D03*
D15*
X107290Y504139D03*
D31*
X115672Y504139D03*
D15*
X124054Y504139D03*
D31*
X132436Y504139D03*
D15*
X147523Y504139D03*
X154229Y504139D03*
D25*
X167640Y504139D03*
D16*
X174498Y504139D03*
D17*
X86868Y504444D03*
D22*
X93878Y504444D03*
D19*
X107290Y504444D03*
D32*
X115672Y504444D03*
D19*
X124054Y504444D03*
D32*
X132436Y504444D03*
D19*
X147523Y504444D03*
X154229Y504444D03*
D22*
X167640Y504444D03*
D20*
X174498Y504444D03*
D13*
X86868Y504749D03*
D25*
X93878Y504749D03*
D15*
X107290Y504749D03*
D31*
X115672Y504749D03*
D15*
X124054Y504749D03*
D31*
X132436Y504749D03*
D15*
X147523Y504749D03*
X154229Y504749D03*
D25*
X167640Y504749D03*
D16*
X174498Y504749D03*
D17*
X86868Y505054D03*
D22*
X93878Y505054D03*
D19*
X107290Y505054D03*
D32*
X115672Y505054D03*
D19*
X124054Y505054D03*
D32*
X132436Y505054D03*
D19*
X147523Y505054D03*
X154229Y505054D03*
D22*
X167640Y505054D03*
D20*
X174498Y505054D03*
D13*
X86868Y505358D03*
D25*
X93878Y505358D03*
D15*
X107290Y505358D03*
D31*
X115672Y505358D03*
D15*
X124054Y505358D03*
D31*
X132436Y505358D03*
D15*
X147523Y505358D03*
X154229Y505358D03*
D25*
X167640Y505358D03*
D16*
X174498Y505358D03*
D13*
X86868Y505663D03*
D25*
X93878Y505663D03*
D15*
X107290Y505663D03*
D31*
X115672Y505663D03*
D15*
X124054Y505663D03*
D31*
X132436Y505663D03*
D15*
X147523Y505663D03*
X154229Y505663D03*
D25*
X167640Y505663D03*
D16*
X174498Y505663D03*
D17*
X86868Y505968D03*
D22*
X93878Y505968D03*
D19*
X107290Y505968D03*
D32*
X115672Y505968D03*
D19*
X124054Y505968D03*
D32*
X132436Y505968D03*
D19*
X147523Y505968D03*
X154229Y505968D03*
D22*
X167640Y505968D03*
D20*
X174498Y505968D03*
D13*
X86868Y506273D03*
D25*
X93878Y506273D03*
D15*
X107290Y506273D03*
D31*
X115672Y506273D03*
D15*
X124054Y506273D03*
D31*
X132436Y506273D03*
D15*
X147523Y506273D03*
X154229Y506273D03*
D25*
X167640Y506273D03*
D16*
X174498Y506273D03*
D17*
X86868Y506578D03*
D18*
X100584Y506578D03*
D19*
X113995Y506578D03*
X120701Y506578D03*
D32*
X145847Y506578D03*
D18*
X160934Y506578D03*
D20*
X174498Y506578D03*
D13*
X86868Y506882D03*
D14*
X100584Y506882D03*
D15*
X113995Y506882D03*
X120701Y506882D03*
D31*
X145847Y506882D03*
D14*
X160934Y506882D03*
D16*
X174498Y506882D03*
D13*
X86868Y507187D03*
D14*
X100584Y507187D03*
D15*
X113995Y507187D03*
X120701Y507187D03*
D31*
X145847Y507187D03*
D14*
X160934Y507187D03*
D16*
X174498Y507187D03*
D17*
X86868Y507492D03*
D18*
X100584Y507492D03*
D19*
X113995Y507492D03*
X120701Y507492D03*
D32*
X145847Y507492D03*
D18*
X160934Y507492D03*
D20*
X174498Y507492D03*
D13*
X86868Y507797D03*
D14*
X100584Y507797D03*
D15*
X113995Y507797D03*
X120701Y507797D03*
D31*
X145847Y507797D03*
D14*
X160934Y507797D03*
D16*
X174498Y507797D03*
D17*
X86868Y508102D03*
D18*
X100584Y508102D03*
D19*
X113995Y508102D03*
X120701Y508102D03*
D32*
X145847Y508102D03*
D18*
X160934Y508102D03*
D20*
X174498Y508102D03*
D13*
X86868Y508406D03*
D14*
X100584Y508406D03*
D15*
X113995Y508406D03*
X120701Y508406D03*
D31*
X145847Y508406D03*
D14*
X160934Y508406D03*
D16*
X174498Y508406D03*
D13*
X86868Y508711D03*
D14*
X100584Y508711D03*
D15*
X113995Y508711D03*
X120701Y508711D03*
D31*
X145847Y508711D03*
D14*
X160934Y508711D03*
D16*
X174498Y508711D03*
D17*
X86868Y509016D03*
D18*
X100584Y509016D03*
D19*
X113995Y509016D03*
X120701Y509016D03*
D32*
X145847Y509016D03*
D18*
X160934Y509016D03*
D20*
X174498Y509016D03*
D13*
X86868Y509321D03*
D14*
X100584Y509321D03*
D15*
X113995Y509321D03*
X120701Y509321D03*
D31*
X145847Y509321D03*
D14*
X160934Y509321D03*
D16*
X174498Y509321D03*
D17*
X86868Y509626D03*
D18*
X100584Y509626D03*
D19*
X113995Y509626D03*
X120701Y509626D03*
D32*
X145847Y509626D03*
D18*
X160934Y509626D03*
D20*
X174498Y509626D03*
D13*
X86868Y509930D03*
D15*
X113995Y509930D03*
X120701Y509930D03*
D25*
X127406Y509930D03*
X134112Y509930D03*
D15*
X140818Y509930D03*
X147523Y509930D03*
D16*
X174498Y509930D03*
D13*
X86868Y510235D03*
D15*
X113995Y510235D03*
X120701Y510235D03*
D25*
X127406Y510235D03*
X134112Y510235D03*
D15*
X140818Y510235D03*
X147523Y510235D03*
D16*
X174498Y510235D03*
D17*
X86868Y510540D03*
D19*
X113995Y510540D03*
X120701Y510540D03*
D22*
X127406Y510540D03*
X134112Y510540D03*
D19*
X140818Y510540D03*
X147523Y510540D03*
D20*
X174498Y510540D03*
D13*
X86868Y510845D03*
D15*
X113995Y510845D03*
X120701Y510845D03*
D25*
X127406Y510845D03*
X134112Y510845D03*
D15*
X140818Y510845D03*
X147523Y510845D03*
D16*
X174498Y510845D03*
D17*
X86868Y511150D03*
D19*
X113995Y511150D03*
X120701Y511150D03*
D22*
X127406Y511150D03*
X134112Y511150D03*
D19*
X140818Y511150D03*
X147523Y511150D03*
D20*
X174498Y511150D03*
D13*
X86868Y511454D03*
D15*
X113995Y511454D03*
X120701Y511454D03*
D25*
X127406Y511454D03*
X134112Y511454D03*
D15*
X140818Y511454D03*
X147523Y511454D03*
D16*
X174498Y511454D03*
D13*
X86868Y511759D03*
D15*
X113995Y511759D03*
X120701Y511759D03*
D25*
X127406Y511759D03*
X134112Y511759D03*
D15*
X140818Y511759D03*
X147523Y511759D03*
D16*
X174498Y511759D03*
D17*
X86868Y512064D03*
D19*
X113995Y512064D03*
X120701Y512064D03*
D22*
X127406Y512064D03*
X134112Y512064D03*
D19*
X140818Y512064D03*
X147523Y512064D03*
D20*
X174498Y512064D03*
D13*
X86868Y512369D03*
D15*
X113995Y512369D03*
X120701Y512369D03*
D25*
X127406Y512369D03*
X134112Y512369D03*
D15*
X140818Y512369D03*
X147523Y512369D03*
D16*
X174498Y512369D03*
D17*
X86868Y512674D03*
D19*
X113995Y512674D03*
X120701Y512674D03*
D22*
X127406Y512674D03*
X134112Y512674D03*
D19*
X140818Y512674D03*
X147523Y512674D03*
D20*
X174498Y512674D03*
D13*
X86868Y512978D03*
D15*
X113995Y512978D03*
X120701Y512978D03*
D25*
X127406Y512978D03*
X134112Y512978D03*
D15*
X140818Y512978D03*
X147523Y512978D03*
D16*
X174498Y512978D03*
D11*
X130607Y513283D03*
D12*
X130607Y513588D03*
D11*
X130607Y513893D03*
D12*
X130607Y514198D03*
D11*
X130607Y514502D03*
X130607Y514807D03*
D12*
X130607Y515112D03*
D11*
X130607Y515417D03*
D12*
X130607Y515722D03*
D11*
X130607Y516026D03*
X130607Y516331D03*
D12*
X130607Y516636D03*
M02*
