G04 EAGLE Gerber RS-274X export*
G75*
%MOMM*%
%FSLAX34Y34*%
%LPD*%
%INSoldermask Bottom*%
%IPPOS*%
%AMOC8*
5,1,8,0,0,1.08239X$1,22.5*%
G01*
%ADD10C,0.812800*%
%ADD11C,1.727200*%
%ADD12P,1.649562X8X112.500000*%
%ADD13C,1.993900*%
%ADD14C,1.879600*%
%ADD15P,1.951982X8X202.500000*%
%ADD16C,1.803400*%
%ADD17P,1.649562X8X292.500000*%
%ADD18P,1.649562X8X202.500000*%
%ADD19C,2.184400*%
%ADD20C,2.082800*%
%ADD21P,2.034460X8X22.500000*%
%ADD22P,1.843527X8X22.500000*%
%ADD23C,1.092200*%


D10*
X177800Y355600D02*
X177800Y127000D01*
X203200Y101600D02*
X330200Y101600D01*
X330200Y381000D02*
X203200Y381000D01*
D11*
X33562Y58616D02*
X18322Y58616D01*
X18322Y13404D02*
X33562Y13404D01*
X83346Y58616D02*
X98586Y58616D01*
X98586Y13404D02*
X83346Y13404D01*
D12*
X305003Y21387D03*
X305003Y72187D03*
D13*
X85154Y291700D02*
X67247Y291700D01*
X67247Y241700D02*
X85154Y241700D01*
X85154Y190100D02*
X67247Y190100D01*
X67247Y140100D02*
X85154Y140100D01*
D14*
X146045Y216114D03*
X146045Y114514D03*
D11*
X138430Y250825D02*
X153670Y250825D01*
X153670Y276225D02*
X138430Y276225D01*
X138430Y301625D02*
X153670Y301625D01*
X45720Y391160D02*
X45720Y406400D01*
X71120Y406400D02*
X71120Y391160D01*
X96520Y391160D02*
X96520Y406400D01*
X45720Y356870D02*
X45720Y341630D01*
X71120Y341630D02*
X71120Y356870D01*
X96520Y356870D02*
X96520Y341630D01*
X193040Y500380D02*
X193040Y515620D01*
X218440Y515620D02*
X218440Y500380D01*
X243840Y500380D02*
X243840Y515620D01*
X269240Y515620D02*
X269240Y500380D01*
X294640Y500380D02*
X294640Y515620D01*
X320040Y515620D02*
X320040Y500380D01*
X345440Y500380D02*
X345440Y515620D01*
X370840Y515620D02*
X370840Y500380D01*
X396240Y500380D02*
X396240Y515620D01*
X421640Y515620D02*
X421640Y500380D01*
X461010Y500380D02*
X461010Y515620D01*
X486410Y515620D02*
X486410Y500380D01*
X511810Y500380D02*
X511810Y515620D01*
X537210Y515620D02*
X537210Y500380D01*
X562610Y500380D02*
X562610Y515620D01*
X588010Y515620D02*
X588010Y500380D01*
X613410Y500380D02*
X613410Y515620D01*
X638810Y515620D02*
X638810Y500380D01*
D15*
X32512Y484251D03*
D16*
X68072Y484251D03*
D17*
X133350Y407924D03*
X133350Y357124D03*
D11*
X622300Y383540D02*
X637540Y383540D01*
X637540Y358140D02*
X622300Y358140D01*
X622300Y332740D02*
X637540Y332740D01*
X637540Y307340D02*
X622300Y307340D01*
D12*
X635000Y413512D03*
X635000Y464312D03*
D18*
X438404Y469138D03*
X387604Y469138D03*
X589788Y427228D03*
X513588Y427228D03*
X589788Y457454D03*
X513588Y457454D03*
X63754Y90932D03*
X38354Y90932D03*
X161544Y90932D03*
X85344Y90932D03*
D11*
X483108Y276606D02*
X498348Y276606D01*
X498348Y231394D02*
X483108Y231394D01*
X548132Y276606D02*
X563372Y276606D01*
X563372Y231394D02*
X548132Y231394D01*
X498348Y202946D02*
X483108Y202946D01*
X483108Y157734D02*
X498348Y157734D01*
X548132Y202946D02*
X563372Y202946D01*
X563372Y157734D02*
X548132Y157734D01*
D19*
X465074Y136652D02*
X465074Y116840D01*
X373380Y152146D02*
X353568Y152146D01*
X353568Y101346D02*
X373380Y101346D01*
D11*
X289560Y428752D02*
X289560Y443992D01*
X264160Y446532D02*
X264160Y431292D01*
X238760Y428752D02*
X238760Y443992D01*
X213360Y446532D02*
X213360Y431292D01*
X491490Y425958D02*
X491490Y441198D01*
X466090Y443738D02*
X466090Y428498D01*
X440690Y425958D02*
X440690Y441198D01*
X415290Y443738D02*
X415290Y428498D01*
X389890Y425958D02*
X389890Y441198D01*
X364490Y443738D02*
X364490Y428498D01*
D20*
X167132Y27686D03*
X141732Y27686D03*
D11*
X334010Y33020D02*
X334010Y17780D01*
X359410Y17780D02*
X359410Y33020D01*
X384810Y33020D02*
X384810Y17780D01*
X410210Y17780D02*
X410210Y33020D01*
X435610Y33020D02*
X435610Y17780D01*
X513080Y17780D02*
X513080Y33020D01*
X538480Y33020D02*
X538480Y17780D01*
X563880Y17780D02*
X563880Y33020D01*
X589280Y33020D02*
X589280Y17780D01*
X622300Y76454D02*
X637540Y76454D01*
X637540Y51054D02*
X622300Y51054D01*
X622300Y25654D02*
X637540Y25654D01*
X637540Y271780D02*
X622300Y271780D01*
X622300Y246380D02*
X637540Y246380D01*
X637540Y220980D02*
X622300Y220980D01*
X622300Y195580D02*
X637540Y195580D01*
X637540Y170180D02*
X622300Y170180D01*
X622300Y144780D02*
X637540Y144780D01*
X637540Y119380D02*
X622300Y119380D01*
X538353Y121920D02*
X538353Y137160D01*
X563753Y137160D02*
X563753Y121920D01*
X589153Y121920D02*
X589153Y137160D01*
X538353Y100330D02*
X538353Y85090D01*
X563753Y85090D02*
X563753Y100330D01*
X589153Y100330D02*
X589153Y85090D01*
D21*
X390370Y330098D03*
X410370Y330098D03*
X430370Y330098D03*
X450370Y330098D03*
D11*
X458470Y275768D02*
X458470Y260528D01*
X433070Y260528D02*
X433070Y275768D01*
X407670Y275768D02*
X407670Y260528D01*
X382270Y260528D02*
X382270Y275768D01*
D17*
X354330Y355600D03*
X354330Y304800D03*
D22*
X177800Y330200D03*
X177800Y304800D03*
X177800Y279400D03*
X177800Y254000D03*
X177800Y228600D03*
X177800Y203200D03*
X177800Y177800D03*
X177800Y152400D03*
X177800Y127000D03*
X177800Y355600D03*
X279400Y101600D03*
X304800Y101600D03*
X330200Y101600D03*
X254000Y101600D03*
X228600Y101600D03*
X203200Y101600D03*
X203200Y381000D03*
X228600Y381000D03*
X254000Y381000D03*
X279400Y381000D03*
X304800Y381000D03*
X330200Y381000D03*
D23*
X679450Y246380D03*
X679450Y307340D03*
X172720Y398780D03*
X161798Y73406D03*
X575056Y408686D03*
X546100Y328676D03*
X531368Y402590D03*
X575818Y394462D03*
X603504Y427990D03*
X595630Y474980D03*
X557530Y328549D03*
D22*
X228600Y330200D03*
X228600Y355600D03*
X254000Y330200D03*
X254000Y355600D03*
X279400Y330200D03*
X279400Y355600D03*
X304800Y330200D03*
X304800Y355600D03*
X330200Y330200D03*
X330200Y355600D03*
X228600Y304800D03*
X254000Y304800D03*
X279400Y304800D03*
X304800Y304800D03*
X330200Y304800D03*
X228600Y279400D03*
X254000Y279400D03*
X279400Y279400D03*
X304800Y279400D03*
X330200Y279400D03*
X355600Y279400D03*
X228600Y254000D03*
X254000Y254000D03*
X279400Y254000D03*
X304800Y254000D03*
X330200Y254000D03*
X355600Y254000D03*
X228600Y228600D03*
X254000Y228600D03*
X279400Y228600D03*
X304800Y228600D03*
X330200Y228600D03*
X355600Y228600D03*
X355600Y203200D03*
X228600Y203200D03*
X228600Y177800D03*
X228600Y127000D03*
X228600Y152400D03*
X254000Y177800D03*
X254000Y127000D03*
X254000Y152400D03*
X254000Y203200D03*
X279400Y203200D03*
X304800Y203200D03*
X330200Y203200D03*
X381000Y203200D03*
X381000Y228600D03*
X406400Y228600D03*
X406400Y203200D03*
X431800Y203200D03*
X431800Y228600D03*
X457200Y203200D03*
X457200Y228600D03*
X279400Y177800D03*
X304800Y177800D03*
X330200Y177800D03*
X279400Y127000D03*
X279400Y152400D03*
X304800Y127000D03*
X304800Y152400D03*
X330200Y127000D03*
X330200Y152400D03*
X203200Y330200D03*
X203200Y355600D03*
X203200Y304800D03*
X203200Y279400D03*
X203200Y254000D03*
X203200Y228600D03*
X203200Y203200D03*
X203200Y177800D03*
X203200Y127000D03*
X203200Y152400D03*
D23*
X338074Y82042D03*
X479374Y360451D03*
M02*
