G04 EAGLE Gerber RS-274X export*
G75*
%MOMM*%
%FSLAX34Y34*%
%LPD*%
%INTop Copper*%
%IPPOS*%
%AMOC8*
5,1,8,0,0,1.08239X$1,22.5*%
G01*
%ADD10C,1.524000*%
%ADD11P,1.429621X8X112.500000*%
%ADD12C,1.790700*%
%ADD13C,1.676400*%
%ADD14P,1.732040X8X202.500000*%
%ADD15C,1.600200*%
%ADD16P,1.429621X8X292.500000*%
%ADD17R,1.168400X1.600200*%
%ADD18P,1.429621X8X202.500000*%
%ADD19C,1.981200*%
%ADD20C,1.879600*%
%ADD21P,1.814519X8X22.500000*%
%ADD22R,1.600200X1.168400*%
%ADD23P,1.623585X8X22.500000*%
%ADD24C,0.812800*%
%ADD25C,0.406400*%
%ADD26C,0.508000*%
%ADD27C,0.609600*%
%ADD28C,0.889000*%
%ADD29C,1.016000*%
%ADD30C,0.304800*%


D10*
X18322Y58616D02*
X33562Y58616D01*
X33562Y13404D02*
X18322Y13404D01*
X83346Y58616D02*
X98586Y58616D01*
X98586Y13404D02*
X83346Y13404D01*
D11*
X305003Y21387D03*
X305003Y72187D03*
D12*
X85154Y291700D02*
X67247Y291700D01*
X67247Y241700D02*
X85154Y241700D01*
X85154Y190100D02*
X67247Y190100D01*
X67247Y140100D02*
X85154Y140100D01*
D13*
X146045Y216114D03*
X146045Y114514D03*
D10*
X138430Y250825D02*
X153670Y250825D01*
X153670Y276225D02*
X138430Y276225D01*
X138430Y301625D02*
X153670Y301625D01*
X45720Y391160D02*
X45720Y406400D01*
X71120Y406400D02*
X71120Y391160D01*
X96520Y391160D02*
X96520Y406400D01*
X45720Y356870D02*
X45720Y341630D01*
X71120Y341630D02*
X71120Y356870D01*
X96520Y356870D02*
X96520Y341630D01*
X193040Y500380D02*
X193040Y515620D01*
X218440Y515620D02*
X218440Y500380D01*
X243840Y500380D02*
X243840Y515620D01*
X269240Y515620D02*
X269240Y500380D01*
X294640Y500380D02*
X294640Y515620D01*
X320040Y515620D02*
X320040Y500380D01*
X345440Y500380D02*
X345440Y515620D01*
X370840Y515620D02*
X370840Y500380D01*
X396240Y500380D02*
X396240Y515620D01*
X421640Y515620D02*
X421640Y500380D01*
X461010Y500380D02*
X461010Y515620D01*
X486410Y515620D02*
X486410Y500380D01*
X511810Y500380D02*
X511810Y515620D01*
X537210Y515620D02*
X537210Y500380D01*
X562610Y500380D02*
X562610Y515620D01*
X588010Y515620D02*
X588010Y500380D01*
X613410Y500380D02*
X613410Y515620D01*
X638810Y515620D02*
X638810Y500380D01*
D14*
X32512Y484251D03*
D15*
X68072Y484251D03*
D16*
X133350Y407924D03*
X133350Y357124D03*
D10*
X622300Y383540D02*
X637540Y383540D01*
X637540Y358140D02*
X622300Y358140D01*
X622300Y332740D02*
X637540Y332740D01*
X637540Y307340D02*
X622300Y307340D01*
D17*
X125730Y330200D03*
X140970Y330200D03*
X125730Y426720D03*
X140970Y426720D03*
D11*
X635000Y413512D03*
X635000Y464312D03*
D18*
X438404Y469138D03*
X387604Y469138D03*
X589788Y427228D03*
X513588Y427228D03*
X589788Y457454D03*
X513588Y457454D03*
X63754Y90932D03*
X38354Y90932D03*
X161544Y90932D03*
X85344Y90932D03*
D10*
X483108Y276606D02*
X498348Y276606D01*
X498348Y231394D02*
X483108Y231394D01*
X548132Y276606D02*
X563372Y276606D01*
X563372Y231394D02*
X548132Y231394D01*
X498348Y202946D02*
X483108Y202946D01*
X483108Y157734D02*
X498348Y157734D01*
X548132Y202946D02*
X563372Y202946D01*
X563372Y157734D02*
X548132Y157734D01*
D19*
X465074Y136652D02*
X465074Y116840D01*
X373380Y152146D02*
X353568Y152146D01*
X353568Y101346D02*
X373380Y101346D01*
D10*
X289560Y428752D02*
X289560Y443992D01*
X264160Y446532D02*
X264160Y431292D01*
X238760Y428752D02*
X238760Y443992D01*
X213360Y446532D02*
X213360Y431292D01*
X491490Y425958D02*
X491490Y441198D01*
X466090Y443738D02*
X466090Y428498D01*
X440690Y425958D02*
X440690Y441198D01*
X415290Y443738D02*
X415290Y428498D01*
X389890Y425958D02*
X389890Y441198D01*
X364490Y443738D02*
X364490Y428498D01*
D20*
X167132Y27686D03*
X141732Y27686D03*
D10*
X334010Y33020D02*
X334010Y17780D01*
X359410Y17780D02*
X359410Y33020D01*
X384810Y33020D02*
X384810Y17780D01*
X410210Y17780D02*
X410210Y33020D01*
X435610Y33020D02*
X435610Y17780D01*
X513080Y17780D02*
X513080Y33020D01*
X538480Y33020D02*
X538480Y17780D01*
X563880Y17780D02*
X563880Y33020D01*
X589280Y33020D02*
X589280Y17780D01*
X622300Y76454D02*
X637540Y76454D01*
X637540Y51054D02*
X622300Y51054D01*
X622300Y25654D02*
X637540Y25654D01*
X637540Y271780D02*
X622300Y271780D01*
X622300Y246380D02*
X637540Y246380D01*
X637540Y220980D02*
X622300Y220980D01*
X622300Y195580D02*
X637540Y195580D01*
X637540Y170180D02*
X622300Y170180D01*
X622300Y144780D02*
X637540Y144780D01*
X637540Y119380D02*
X622300Y119380D01*
X538353Y121920D02*
X538353Y137160D01*
X563753Y137160D02*
X563753Y121920D01*
X589153Y121920D02*
X589153Y137160D01*
X538353Y100330D02*
X538353Y85090D01*
X563753Y85090D02*
X563753Y100330D01*
X589153Y100330D02*
X589153Y85090D01*
D21*
X390370Y330098D03*
X410370Y330098D03*
X430370Y330098D03*
X450370Y330098D03*
D22*
X494538Y375666D03*
X494538Y360426D03*
X494538Y345186D03*
D10*
X458470Y275768D02*
X458470Y260528D01*
X433070Y260528D02*
X433070Y275768D01*
X407670Y275768D02*
X407670Y260528D01*
X382270Y260528D02*
X382270Y275768D01*
D16*
X354330Y355600D03*
X354330Y304800D03*
D23*
X177800Y330200D03*
X177800Y304800D03*
X177800Y279400D03*
X177800Y254000D03*
X177800Y228600D03*
X177800Y203200D03*
X177800Y177800D03*
X177800Y152400D03*
X177800Y127000D03*
X177800Y355600D03*
D24*
X177800Y330200D01*
X177800Y304800D01*
X177800Y279400D01*
X177800Y254000D01*
X177800Y228600D01*
X177800Y203200D01*
X177800Y177800D01*
X177800Y152400D01*
X177800Y127000D01*
X662686Y271526D02*
X662686Y366522D01*
X645668Y383540D01*
X629920Y383540D01*
X629920Y271780D02*
X662432Y271780D01*
X662686Y271526D01*
X538353Y67310D02*
X398780Y67310D01*
D25*
X494538Y345186D02*
X495300Y345186D01*
D24*
X398780Y67310D02*
X380797Y49327D01*
X327863Y49327D01*
X305003Y72187D01*
X181356Y27686D02*
X167132Y27686D01*
X181356Y27686D02*
X226060Y72390D01*
X304800Y72390D01*
X305003Y72187D01*
D26*
X531622Y151130D02*
X538734Y144018D01*
X538734Y129921D01*
X538353Y129540D01*
X514858Y309880D02*
X514858Y331470D01*
X531622Y293116D02*
X531622Y151130D01*
X531622Y293116D02*
X514858Y309880D01*
D24*
X538353Y129540D02*
X538353Y92710D01*
X538353Y67310D01*
X384810Y45314D02*
X384810Y25400D01*
X384810Y45314D02*
X380797Y49327D01*
X646684Y76200D02*
X662686Y92202D01*
X646684Y76200D02*
X630174Y76200D01*
X629920Y76454D01*
X662686Y92202D02*
X662686Y271526D01*
X630174Y76200D02*
X611632Y76200D01*
X602742Y67310D02*
X538353Y67310D01*
X602742Y67310D02*
X611632Y76200D01*
D26*
X514858Y331470D02*
X501142Y345186D01*
X494538Y345186D01*
D27*
X120650Y375920D02*
X57150Y375920D01*
X45720Y364490D01*
X45720Y349250D01*
D23*
X279400Y101600D03*
X304800Y101600D03*
X330200Y101600D03*
X254000Y101600D03*
X228600Y101600D03*
X203200Y101600D03*
D24*
X304800Y101600D02*
X330200Y101600D01*
X304800Y101600D02*
X203200Y101600D01*
X330200Y101600D02*
X330454Y101346D01*
X363474Y101346D01*
X441960Y157734D02*
X490728Y157734D01*
D23*
X203200Y381000D03*
X228600Y381000D03*
X254000Y381000D03*
X279400Y381000D03*
X304800Y381000D03*
X330200Y381000D03*
D24*
X228600Y381000D02*
X203200Y381000D01*
X228600Y381000D02*
X254000Y381000D01*
X279400Y381000D01*
X304800Y381000D01*
X330200Y381000D01*
X363474Y101346D02*
X385572Y101346D01*
X441960Y157734D01*
X435610Y53467D02*
X435610Y25400D01*
X679450Y69850D02*
X679450Y246380D01*
X679450Y307340D01*
X679450Y375928D01*
D28*
X679450Y246380D03*
X679450Y307340D03*
D24*
X203200Y381000D02*
X190500Y381000D01*
X172720Y398780D01*
D28*
X172720Y398780D03*
D24*
X330200Y381000D02*
X354894Y381000D01*
X416306Y381000D01*
D28*
X161798Y73406D03*
D27*
X133350Y363220D02*
X120650Y375920D01*
X133350Y363220D02*
X133350Y357124D01*
D24*
X641866Y413512D02*
X679450Y375928D01*
X641866Y413512D02*
X635000Y413512D01*
X189230Y73406D02*
X161798Y73406D01*
X203200Y87376D02*
X203200Y101600D01*
X203200Y87376D02*
X189230Y73406D01*
D26*
X354330Y355600D02*
X354330Y380436D01*
X354894Y381000D01*
D24*
X629920Y51054D02*
X660654Y51054D01*
X679450Y69850D01*
X629920Y51054D02*
X615188Y51054D01*
X611378Y54864D01*
X437007Y54864D01*
X435610Y53467D01*
X437007Y54864D02*
X418592Y54864D01*
X410210Y46482D01*
X416306Y381000D02*
X433324Y381000D01*
X450596Y363728D01*
X450596Y330324D01*
X450370Y330098D01*
X415290Y382016D02*
X415290Y436118D01*
X415290Y382016D02*
X416306Y381000D01*
X410210Y46482D02*
X410210Y25400D01*
D29*
X146050Y301625D02*
X115189Y301625D01*
X101600Y315214D02*
X50546Y315214D01*
X20574Y285242D01*
X20574Y212598D02*
X43434Y189738D01*
X75838Y189738D01*
X76200Y190100D01*
X115189Y301625D02*
X101600Y315214D01*
X20574Y285242D02*
X20574Y212598D01*
X121920Y138639D02*
X146045Y114514D01*
X121920Y226695D02*
X146050Y250825D01*
X121920Y226695D02*
X121920Y138639D01*
D25*
X575056Y408432D02*
X575056Y408686D01*
D28*
X575056Y408686D03*
D25*
X605282Y408686D01*
X614934Y418338D01*
X614934Y457200D01*
X614934Y457962D01*
X614934Y476758D01*
X634238Y485140D02*
X638810Y489712D01*
X638810Y508000D01*
X623316Y485140D02*
X614934Y476758D01*
X623316Y485140D02*
X634238Y485140D01*
X588010Y499110D02*
X588010Y508000D01*
X588010Y499110D02*
X574040Y485140D01*
X551180Y406400D02*
X551180Y383413D01*
X542798Y375031D01*
X542798Y347980D01*
X545084Y345694D01*
X545084Y328676D01*
X546100Y328676D01*
D28*
X546100Y328676D03*
D25*
X551180Y406400D02*
X574040Y429260D01*
X574040Y485140D01*
X562610Y502412D02*
X562610Y508000D01*
X537083Y324739D02*
X550672Y311150D01*
X540766Y383667D02*
X540766Y414274D01*
X540766Y383667D02*
X533146Y376047D01*
X532892Y376047D01*
X532892Y345933D01*
X537083Y341742D01*
X537083Y324739D01*
X540766Y414274D02*
X562610Y436118D01*
X562610Y508000D01*
X569976Y311150D02*
X550672Y311150D01*
X569976Y311150D02*
X591566Y332740D01*
X629920Y332740D01*
D28*
X531368Y402590D03*
D25*
X531368Y417830D01*
X550926Y437388D01*
X550926Y474980D01*
X537210Y488696D02*
X537210Y508000D01*
X537210Y488696D02*
X550926Y474980D01*
D28*
X575818Y394462D03*
X603504Y427990D03*
D25*
X603504Y466852D01*
X595630Y474726D01*
X595630Y474980D01*
D28*
X595630Y474980D03*
D25*
X575818Y394462D02*
X565912Y394462D01*
X558546Y378206D02*
X552450Y372110D01*
X552450Y349250D01*
X556768Y344932D02*
X556768Y328549D01*
X557530Y328549D01*
D28*
X557530Y328549D03*
D25*
X558546Y387096D02*
X565912Y394462D01*
X558546Y387096D02*
X558546Y378206D01*
X552450Y349250D02*
X556768Y344932D01*
D30*
X521716Y419354D02*
X532638Y430276D01*
X532638Y460248D01*
X522732Y470154D02*
X503936Y470154D01*
X486410Y487680D01*
X486410Y508000D01*
X522732Y470154D02*
X532638Y460248D01*
X521716Y419354D02*
X521716Y347882D01*
X530987Y338611D01*
X530987Y320167D01*
X593598Y283464D02*
X593598Y229616D01*
X602234Y220980D01*
X629920Y220980D01*
X548132Y303022D02*
X530987Y320167D01*
X548132Y303022D02*
X574040Y303022D01*
X593598Y283464D01*
X524256Y317246D02*
X524256Y333502D01*
X461010Y461518D02*
X461010Y508000D01*
X461010Y461518D02*
X452882Y453390D01*
X452882Y417322D01*
X465836Y404368D01*
X497078Y404368D01*
X513842Y387604D01*
X513842Y343916D02*
X524256Y333502D01*
X513842Y343916D02*
X513842Y387604D01*
X524256Y317246D02*
X547624Y293878D01*
X570738Y293878D01*
X584708Y279908D01*
X609600Y195580D02*
X629920Y195580D01*
X609600Y195580D02*
X600456Y195580D01*
X598170Y195580D01*
X584708Y209042D01*
X584708Y279908D01*
D25*
X298450Y411480D02*
X207010Y411480D01*
X298450Y411480D02*
X306324Y419354D01*
X306324Y456184D01*
X331470Y481330D01*
X358140Y481330D01*
X370840Y494030D01*
X370840Y508000D01*
X144526Y430276D02*
X144526Y426720D01*
X191770Y426720D02*
X207010Y411480D01*
X191770Y426720D02*
X144526Y426720D01*
X140970Y426720D02*
X144526Y430276D01*
X144526Y431800D01*
X201930Y403860D02*
X303530Y403860D01*
X314706Y415036D01*
X314706Y453136D01*
X335280Y473710D01*
X374650Y473710D01*
X396240Y495300D01*
X396240Y508000D01*
X170180Y414782D02*
X159258Y403860D01*
X170180Y414782D02*
X191008Y414782D01*
X201930Y403860D01*
X152502Y330200D02*
X143256Y330200D01*
X159258Y336956D02*
X159258Y403860D01*
X159258Y336956D02*
X152502Y330200D01*
X106680Y349250D02*
X96520Y349250D01*
X106680Y349250D02*
X125730Y330200D01*
X125730Y426720D02*
X103378Y426720D01*
X96520Y419862D02*
X96520Y398780D01*
X96520Y419862D02*
X103378Y426720D01*
D30*
X128270Y426720D02*
X138430Y426720D01*
X137160Y330200D02*
X129540Y330200D01*
D26*
X218440Y485140D02*
X218440Y508000D01*
X228600Y474980D02*
X270510Y474980D01*
X228600Y474980D02*
X218440Y485140D01*
X270510Y474980D02*
X289560Y455930D01*
X289560Y436372D01*
X193040Y494030D02*
X193040Y508000D01*
X193040Y494030D02*
X223520Y463550D01*
X223774Y463296D01*
X254762Y463296D01*
X264160Y453898D01*
X264160Y438912D01*
D25*
X513588Y427228D02*
X513588Y457454D01*
D30*
X466090Y443738D02*
X466090Y436118D01*
D25*
X466090Y443738D02*
X479806Y457454D01*
X513588Y457454D01*
D23*
X228600Y330200D03*
X228600Y355600D03*
X254000Y330200D03*
X254000Y355600D03*
X279400Y330200D03*
X279400Y355600D03*
X304800Y330200D03*
X304800Y355600D03*
X330200Y330200D03*
X330200Y355600D03*
X228600Y304800D03*
X254000Y304800D03*
X279400Y304800D03*
X304800Y304800D03*
X330200Y304800D03*
X228600Y279400D03*
X254000Y279400D03*
X279400Y279400D03*
X304800Y279400D03*
X330200Y279400D03*
X355600Y279400D03*
X228600Y254000D03*
X254000Y254000D03*
X279400Y254000D03*
X304800Y254000D03*
X330200Y254000D03*
X355600Y254000D03*
X228600Y228600D03*
X254000Y228600D03*
X279400Y228600D03*
X304800Y228600D03*
X330200Y228600D03*
X355600Y228600D03*
X355600Y203200D03*
X228600Y203200D03*
X228600Y177800D03*
X228600Y127000D03*
X228600Y152400D03*
X254000Y177800D03*
X254000Y127000D03*
X254000Y152400D03*
X254000Y203200D03*
X279400Y203200D03*
X304800Y203200D03*
X330200Y203200D03*
X381000Y203200D03*
X381000Y228600D03*
X406400Y228600D03*
X406400Y203200D03*
X431800Y203200D03*
X431800Y228600D03*
X457200Y203200D03*
X457200Y228600D03*
X279400Y177800D03*
X304800Y177800D03*
X330200Y177800D03*
X279400Y127000D03*
X279400Y152400D03*
X304800Y127000D03*
X304800Y152400D03*
X330200Y127000D03*
X330200Y152400D03*
X203200Y330200D03*
X203200Y355600D03*
X203200Y304800D03*
X203200Y279400D03*
X203200Y254000D03*
X203200Y228600D03*
X203200Y203200D03*
X203200Y177800D03*
X203200Y127000D03*
X203200Y152400D03*
D29*
X146050Y276225D02*
X137795Y276225D01*
X104902Y243332D01*
X104902Y117602D01*
X141732Y80772D02*
X141732Y27686D01*
X141732Y80772D02*
X104902Y117602D01*
D28*
X338074Y82042D03*
D26*
X501142Y82042D01*
X515874Y96774D01*
X515874Y295656D02*
X465582Y345948D01*
X465582Y367538D01*
X473710Y375666D01*
X494538Y375666D01*
X515874Y295656D02*
X515874Y96774D01*
D30*
X538480Y31877D02*
X538480Y25400D01*
X538480Y31877D02*
X551434Y44831D01*
X605917Y44831D01*
X624967Y25781D01*
X629793Y25781D02*
X629920Y25654D01*
X629793Y25781D02*
X624967Y25781D01*
D25*
X494538Y360426D02*
X479374Y360426D01*
X479374Y360451D01*
D28*
X479374Y360451D03*
D25*
X418592Y304800D02*
X354330Y304800D01*
X418592Y304800D02*
X430530Y316738D01*
X430530Y329938D01*
X430370Y330098D01*
M02*
