M48
;GenerationSoftware,Autodesk,EAGLE,9.6.2*%
;CreationDate,2020-08-11T18:30:15Z*%
FMAT,2
ICI,OFF
METRIC,TZ,000.000
T7C0.483
T6C0.813
T5C0.900
T4C1.016
T3C1.118
T2C1.194
T1C1.321
%
G90
M71
T1
X46507Y12675
X36347Y15215
X36347Y10135
T2
X7620Y29170
X7620Y19010
X7620Y24170
X7620Y14010
T3
X14604Y11451
X14604Y21611
T4
X7112Y39878
X4572Y39878
X14605Y30162
X53848Y2540
X14605Y27622
X14605Y25082
X51181Y50800
X2594Y5862
X2594Y1340
X9097Y5862
X9097Y1340
X9652Y34925
X19304Y50800
X21844Y50800
X24384Y50800
X26924Y50800
X29464Y50800
X32004Y50800
X34544Y50800
X37084Y50800
X39624Y50800
X42164Y50800
X46101Y50800
X48641Y50800
X53721Y50800
X56261Y50800
X58801Y50800
X61341Y50800
X63881Y50800
X62992Y38354
X62992Y35814
X62992Y33274
X62992Y30734
X49073Y27661
X49073Y23139
X55575Y27661
X55575Y23139
X49073Y20295
X49073Y15773
X55575Y20295
X55575Y15773
X7112Y34925
X4572Y34925
X9652Y39878
X28956Y43637
X26416Y43891
X23876Y43637
X21336Y43891
X49149Y43358
X46609Y43612
X44069Y43358
X41529Y43612
X38989Y43358
X36449Y43612
X16713Y2769
X14173Y2769
X33401Y2540
X35941Y2540
X38481Y2540
X41021Y2540
X43561Y2540
X51308Y2540
X56388Y2540
X58928Y2540
X62992Y7645
X62992Y5105
X62992Y2565
X62992Y27178
X62992Y24638
X62992Y22098
X62992Y19558
X62992Y17018
X62992Y14478
X62992Y11938
X53835Y12954
X56375Y12954
X58915Y12954
X53835Y9271
X56375Y9271
X58915Y9271
X45847Y26815
X43307Y26815
X40767Y26815
X38227Y26815
T5
X27940Y17780
X30480Y17780
X33020Y17780
X27940Y12700
X27940Y15240
X30480Y12700
X30480Y15240
X33020Y12700
X33020Y15240
X20320Y33020
X20320Y35560
X20320Y30480
X20320Y27940
X20320Y25400
X20320Y22860
X20320Y20320
X20320Y17780
X20320Y12700
X20320Y15240
X27940Y25400
X17780Y33020
X17780Y30480
X17780Y27940
X17780Y25400
X17780Y22860
X17780Y20320
X17780Y17780
X17780Y15240
X17780Y12700
X17780Y35560
X27940Y10160
X30480Y10160
X33020Y10160
X25400Y10160
X22860Y10160
X20320Y10160
X20320Y38100
X22860Y38100
X25400Y38100
X27940Y38100
X30480Y38100
X33020Y38100
X22860Y33020
X22860Y35560
X25400Y33020
X25400Y35560
X27940Y33020
X27940Y35560
X30480Y33020
X30480Y35560
X33020Y33020
X33020Y35560
X22860Y30480
X25400Y30480
X27940Y30480
X30480Y30480
X33020Y30480
X22860Y27940
X25400Y27940
X27940Y27940
X30480Y27940
X33020Y27940
X35560Y27940
X22860Y25400
X25400Y25400
X30480Y25400
X33020Y25400
X35560Y25400
X22860Y22860
X25400Y22860
X27940Y22860
X45720Y20320
X30480Y22860
X33020Y22860
X35560Y22860
X35560Y20320
X22860Y20320
X22860Y17780
X22860Y12700
X22860Y15240
X25400Y17780
X25400Y12700
X25400Y15240
X25400Y20320
X27940Y20320
X30480Y20320
X33020Y20320
X38100Y20320
X38100Y22860
X40640Y22860
X40640Y20320
X43180Y20320
X43180Y22860
X45720Y22860
T6
X43840Y46914
X38760Y46914
X58979Y42723
X51359Y42723
X58979Y45745
X51359Y45745
X6375Y9093
X3835Y9093
X16154Y9093
X8534Y9093
X41037Y33010
X43037Y33010
X45037Y33010
X63500Y41351
X63500Y46431
X30500Y7219
X35433Y35560
X30500Y2139
X35433Y30480
X3251Y48425
X6807Y48425
X13335Y40792
X13335Y35712
X39037Y33010
T7
X54610Y32868
X57506Y40869
X16180Y7341
X17272Y39878
X67945Y30734
X67945Y24638
X59563Y47498
X60350Y42799
X57582Y39446
X33807Y8204
X53137Y40259
X55753Y32855
X47937Y36045
M30